<?xml version="1.0" encoding="UTF-8" standalone="no"?>
<!DOCTYPE svg PUBLIC "-//W3C//DTD SVG 1.1//EN"
 "http://www.w3.org/Graphics/SVG/1.1/DTD/svg11.dtd">
<!-- Generated by graphviz version 2.43.0 (0)
 -->
<!-- Title: %3 Pages: 1 -->
<svg width="748pt" height="392pt"
 viewBox="0.00 0.00 748.19 392.00" xmlns="http://www.w3.org/2000/svg" xmlns:xlink="http://www.w3.org/1999/xlink">
<g id="graph0" class="graph" transform="scale(1 1) rotate(0) translate(4 388)">
<title>%3</title>
<polygon fill="white" stroke="transparent" points="-4,4 -4,-388 744.19,-388 744.19,4 -4,4"/>
<!-- 1 -->
<g id="node1" class="node">
<title>1</title>
<ellipse fill="none" stroke="black" cx="308.19" cy="-366" rx="27" ry="18"/>
<text text-anchor="middle" x="308.19" y="-362.3" font-family="Times,serif" font-size="14.00">1</text>
</g>
<!-- 2 -->
<g id="node2" class="node">
<title>2</title>
<ellipse fill="none" stroke="black" cx="309.19" cy="-279" rx="27" ry="18"/>
<text text-anchor="middle" x="309.19" y="-275.3" font-family="Times,serif" font-size="14.00">2</text>
</g>
<!-- 1&#45;&gt;2 -->
<g id="edge1" class="edge">
<title>1&#45;&gt;2</title>
<path fill="none" stroke="black" stroke-width="1.5" d="M308.39,-347.8C308.53,-336.16 308.72,-320.55 308.87,-307.24"/>
<polygon fill="black" stroke="black" stroke-width="1.5" points="312.37,-307.22 308.99,-297.18 305.37,-307.13 312.37,-307.22"/>
<text text-anchor="middle" x="317.69" y="-318.8" font-family="Times,serif" font-size="14.00">14</text>
</g>
<!-- None -->
<g id="node3" class="node">
<title>None</title>
<ellipse fill="none" stroke="black" cx="483.19" cy="-18" rx="35.19" ry="18"/>
<text text-anchor="middle" x="483.19" y="-14.3" font-family="Times,serif" font-size="14.00">None</text>
</g>
<!-- 1&#45;&gt;None -->
<g id="edge2" class="edge">
<title>1&#45;&gt;None</title>
<path fill="none" stroke="black" stroke-width="1.29" d="M334.44,-360.8C393.8,-350.57 533.19,-322.07 533.19,-280 533.19,-280 533.19,-280 533.19,-104 533.19,-80.67 519.03,-58.1 505.78,-42.08"/>
<polygon fill="black" stroke="black" stroke-width="1.29" points="508.23,-39.57 499.01,-34.34 502.96,-44.17 508.23,-39.57"/>
<text text-anchor="middle" x="542.69" y="-188.3" font-family="Times,serif" font-size="14.00">12</text>
</g>
<!-- 2&#45;&gt;1 -->
<g id="edge3" class="edge">
<title>2&#45;&gt;1</title>
<path fill="none" stroke="black" stroke-width="0.43" d="M300.59,-296.29C298,-302.04 295.5,-308.65 294.19,-315 292.58,-322.86 293.78,-331.3 296.03,-338.96"/>
<polygon fill="black" stroke="black" stroke-width="0.43" points="292.78,-340.25 299.45,-348.48 299.36,-337.88 292.78,-340.25"/>
<text text-anchor="middle" x="299.19" y="-318.8" font-family="Times,serif" font-size="14.00">4</text>
</g>
<!-- 2&#45;&gt;None -->
<g id="edge5" class="edge">
<title>2&#45;&gt;None</title>
<path fill="none" stroke="black" stroke-width="1.5" d="M328.88,-266.5C365.17,-244.1 442.02,-190.83 476.19,-123 488.23,-99.11 488.7,-68.14 486.95,-46.22"/>
<polygon fill="black" stroke="black" stroke-width="1.5" points="490.43,-45.87 485.95,-36.26 483.46,-46.56 490.43,-45.87"/>
<text text-anchor="middle" x="474.69" y="-144.8" font-family="Times,serif" font-size="14.00">14</text>
</g>
<!-- 4 -->
<g id="node4" class="node">
<title>4</title>
<ellipse fill="none" stroke="black" cx="309.19" cy="-192" rx="27" ry="18"/>
<text text-anchor="middle" x="309.19" y="-188.3" font-family="Times,serif" font-size="14.00">4</text>
</g>
<!-- 2&#45;&gt;4 -->
<g id="edge4" class="edge">
<title>2&#45;&gt;4</title>
<path fill="none" stroke="black" stroke-width="0.64" d="M309.19,-260.8C309.19,-249.16 309.19,-233.55 309.19,-220.24"/>
<polygon fill="black" stroke="black" stroke-width="0.64" points="312.69,-220.18 309.19,-210.18 305.69,-220.18 312.69,-220.18"/>
<text text-anchor="middle" x="314.19" y="-231.8" font-family="Times,serif" font-size="14.00">6</text>
</g>
<!-- 4&#45;&gt;1 -->
<g id="edge6" class="edge">
<title>4&#45;&gt;1</title>
<path fill="none" stroke="black" stroke-width="0.43" d="M294.88,-207.38C283.36,-220.18 268.26,-240.08 263.19,-261 259.42,-276.55 258.58,-281.68 263.19,-297 268.16,-313.52 278.6,-329.72 288.17,-342.17"/>
<polygon fill="black" stroke="black" stroke-width="0.43" points="285.59,-344.54 294.58,-350.14 291.04,-340.15 285.59,-344.54"/>
<text text-anchor="middle" x="268.19" y="-275.3" font-family="Times,serif" font-size="14.00">4</text>
</g>
<!-- 4&#45;&gt;2 -->
<g id="edge7" class="edge">
<title>4&#45;&gt;2</title>
<path fill="none" stroke="black" stroke-width="1.07" d="M296,-207.89C289,-217.61 282.52,-230.73 286.19,-243 287.36,-246.89 289.1,-250.74 291.13,-254.39"/>
<polygon fill="black" stroke="black" stroke-width="1.07" points="288.24,-256.38 296.54,-262.95 294.16,-252.63 288.24,-256.38"/>
<text text-anchor="middle" x="295.69" y="-231.8" font-family="Times,serif" font-size="14.00">10</text>
</g>
<!-- 3 -->
<g id="node5" class="node">
<title>3</title>
<ellipse fill="none" stroke="black" cx="250.19" cy="-105" rx="27" ry="18"/>
<text text-anchor="middle" x="250.19" y="-101.3" font-family="Times,serif" font-size="14.00">3</text>
</g>
<!-- 4&#45;&gt;3 -->
<g id="edge8" class="edge">
<title>4&#45;&gt;3</title>
<path fill="none" stroke="black" stroke-width="2.14" d="M285.54,-183.15C273,-177.65 258.66,-168.93 251.19,-156 247.25,-149.18 245.98,-140.91 245.98,-133.08"/>
<polygon fill="black" stroke="black" stroke-width="2.14" points="249.49,-133.05 246.63,-122.84 242.5,-132.6 249.49,-133.05"/>
<text text-anchor="middle" x="260.69" y="-144.8" font-family="Times,serif" font-size="14.00">20</text>
</g>
<!-- L. elongatus -->
<g id="node7" class="node">
<title>L. elongatus</title>
<ellipse fill="none" stroke="black" cx="324.19" cy="-18" rx="67.69" ry="18"/>
<text text-anchor="middle" x="324.19" y="-14.3" font-family="Times,serif" font-size="14.00">L. elongatus</text>
</g>
<!-- 4&#45;&gt;L. elongatus -->
<g id="edge10" class="edge">
<title>4&#45;&gt;L. elongatus</title>
<path fill="none" stroke="black" stroke-width="0.64" d="M309.12,-173.61C309.22,-147.5 310.27,-96.7 316.19,-54 316.57,-51.31 317.04,-48.53 317.58,-45.76"/>
<polygon fill="black" stroke="black" stroke-width="0.64" points="321,-46.49 319.69,-35.98 314.16,-45.02 321,-46.49"/>
<text text-anchor="middle" x="317.19" y="-101.3" font-family="Times,serif" font-size="14.00">6</text>
</g>
<!-- 6 -->
<g id="node8" class="node">
<title>6</title>
<ellipse fill="none" stroke="black" cx="440.19" cy="-105" rx="27" ry="18"/>
<text text-anchor="middle" x="440.19" y="-101.3" font-family="Times,serif" font-size="14.00">6</text>
</g>
<!-- 4&#45;&gt;6 -->
<g id="edge9" class="edge">
<title>4&#45;&gt;6</title>
<path fill="none" stroke="black" stroke-width="0.21" d="M327.96,-178.82C350.24,-164.37 387.56,-140.15 413,-123.64"/>
<polygon fill="black" stroke="black" stroke-width="0.21" points="414.97,-126.54 421.46,-118.16 411.16,-120.66 414.97,-126.54"/>
<text text-anchor="middle" x="387.19" y="-144.8" font-family="Times,serif" font-size="14.00">2</text>
</g>
<!-- 3&#45;&gt;2 -->
<g id="edge11" class="edge">
<title>3&#45;&gt;2</title>
<path fill="none" stroke="black" stroke-width="0.21" d="M245.21,-122.72C242.96,-132.46 241.21,-144.96 243.19,-156 250.61,-197.36 257.03,-207.94 280.19,-243 282.93,-247.14 286.07,-251.37 289.26,-255.38"/>
<polygon fill="black" stroke="black" stroke-width="0.21" points="286.67,-257.74 295.74,-263.22 292.07,-253.28 286.67,-257.74"/>
<text text-anchor="middle" x="265.19" y="-188.3" font-family="Times,serif" font-size="14.00">2</text>
</g>
<!-- 3&#45;&gt;None -->
<g id="edge15" class="edge">
<title>3&#45;&gt;None</title>
<path fill="none" stroke="black" stroke-width="1.71" d="M272.04,-94.05C278.16,-91.52 284.86,-88.96 291.19,-87 328.5,-75.47 341.82,-85.54 377.19,-69 386.94,-64.44 386.88,-59.4 396.19,-54 411.21,-45.29 428.82,-37.77 444.24,-31.95"/>
<polygon fill="black" stroke="black" stroke-width="1.71" points="445.83,-35.1 454.02,-28.38 443.43,-28.52 445.83,-35.1"/>
<text text-anchor="middle" x="405.69" y="-57.8" font-family="Times,serif" font-size="14.00">16</text>
</g>
<!-- 3&#45;&gt;4 -->
<g id="edge12" class="edge">
<title>3&#45;&gt;4</title>
<path fill="none" stroke="black" stroke-width="1.93" d="M261.15,-121.78C269.94,-134.45 282.44,-152.46 292.49,-166.94"/>
<polygon fill="black" stroke="black" stroke-width="1.93" points="289.79,-169.19 298.37,-175.41 295.54,-165.2 289.79,-169.19"/>
<text text-anchor="middle" x="292.69" y="-144.8" font-family="Times,serif" font-size="14.00">18</text>
</g>
<!-- 8 -->
<g id="node6" class="node">
<title>8</title>
<ellipse fill="none" stroke="black" cx="211.19" cy="-18" rx="27" ry="18"/>
<text text-anchor="middle" x="211.19" y="-14.3" font-family="Times,serif" font-size="14.00">8</text>
</g>
<!-- 3&#45;&gt;8 -->
<g id="edge13" class="edge">
<title>3&#45;&gt;8</title>
<path fill="none" stroke="black" stroke-width="0.43" d="M238.11,-88.6C233.91,-82.71 229.44,-75.78 226.19,-69 222.75,-61.81 219.9,-53.65 217.65,-46.04"/>
<polygon fill="black" stroke="black" stroke-width="0.43" points="220.96,-44.87 214.94,-36.15 214.2,-46.72 220.96,-44.87"/>
<text text-anchor="middle" x="231.19" y="-57.8" font-family="Times,serif" font-size="14.00">4</text>
</g>
<!-- 3&#45;&gt;L. elongatus -->
<g id="edge14" class="edge">
<title>3&#45;&gt;L. elongatus</title>
<path fill="none" stroke="black" stroke-width="0.21" d="M252.98,-86.83C255.36,-76.45 259.64,-63.46 267.19,-54 271.53,-48.57 276.94,-43.77 282.71,-39.6"/>
<polygon fill="black" stroke="black" stroke-width="0.21" points="284.88,-42.36 291.3,-33.94 281.03,-36.52 284.88,-42.36"/>
<text text-anchor="middle" x="272.19" y="-57.8" font-family="Times,serif" font-size="14.00">2</text>
</g>
<!-- 6&#45;&gt;None -->
<g id="edge17" class="edge">
<title>6&#45;&gt;None</title>
<path fill="none" stroke="black" stroke-width="0.21" d="M450.24,-88.21C453.86,-82.28 457.87,-75.42 461.19,-69 465.11,-61.42 469,-52.99 472.39,-45.24"/>
<polygon fill="black" stroke="black" stroke-width="0.21" points="475.66,-46.48 476.38,-35.91 469.23,-43.73 475.66,-46.48"/>
<text text-anchor="middle" x="473.19" y="-57.8" font-family="Times,serif" font-size="14.00">2</text>
</g>
<!-- 6&#45;&gt;4 -->
<g id="edge16" class="edge">
<title>6&#45;&gt;4</title>
<path fill="none" stroke="black" stroke-width="0.21" d="M429.42,-121.73C421.33,-132.57 409.41,-146.65 396.19,-156 380.45,-167.14 360.66,-175.46 343.93,-181.19"/>
<polygon fill="black" stroke="black" stroke-width="0.21" points="342.4,-178 333.97,-184.42 344.56,-184.66 342.4,-178"/>
<text text-anchor="middle" x="417.19" y="-144.8" font-family="Times,serif" font-size="14.00">2</text>
</g>
<!-- 5 -->
<g id="node9" class="node">
<title>5</title>
<ellipse fill="none" stroke="black" cx="178.19" cy="-105" rx="27" ry="18"/>
<text text-anchor="middle" x="178.19" y="-101.3" font-family="Times,serif" font-size="14.00">5</text>
</g>
<!-- 5&#45;&gt;None -->
<g id="edge20" class="edge">
<title>5&#45;&gt;None</title>
<path fill="none" stroke="black" stroke-width="1.29" d="M198.72,-93.04C203.68,-90.75 209.03,-88.56 214.19,-87 266.22,-71.22 285.29,-90.57 335.19,-69 345.07,-64.73 344.58,-58.84 354.19,-54 369.48,-46.3 409.99,-35.85 441.58,-28.38"/>
<polygon fill="black" stroke="black" stroke-width="1.29" points="442.53,-31.75 451.47,-26.06 440.94,-24.93 442.53,-31.75"/>
<text text-anchor="middle" x="363.69" y="-57.8" font-family="Times,serif" font-size="14.00">12</text>
</g>
<!-- 5&#45;&gt;L. elongatus -->
<g id="edge18" class="edge">
<title>5&#45;&gt;L. elongatus</title>
<path fill="none" stroke="black" stroke-width="0.21" d="M184.07,-87.39C188.74,-76.44 196.32,-62.58 207.19,-54 216.59,-46.58 240.47,-38.9 264.22,-32.63"/>
<polygon fill="black" stroke="black" stroke-width="0.21" points="265.18,-36 273.99,-30.12 263.44,-29.21 265.18,-36"/>
<text text-anchor="middle" x="212.19" y="-57.8" font-family="Times,serif" font-size="14.00">2</text>
</g>
<!-- N. tetracanthus -->
<g id="node10" class="node">
<title>N. tetracanthus</title>
<ellipse fill="none" stroke="black" cx="83.19" cy="-18" rx="83.39" ry="18"/>
<text text-anchor="middle" x="83.19" y="-14.3" font-family="Times,serif" font-size="14.00">N. tetracanthus</text>
</g>
<!-- 5&#45;&gt;N. tetracanthus -->
<g id="edge19" class="edge">
<title>5&#45;&gt;N. tetracanthus</title>
<path fill="none" stroke="black" stroke-width="0.21" d="M162.51,-89.96C148.06,-77.04 126.36,-57.62 109.31,-42.37"/>
<polygon fill="black" stroke="black" stroke-width="0.21" points="111.63,-39.75 101.84,-35.69 106.96,-44.96 111.63,-39.75"/>
<text text-anchor="middle" x="142.19" y="-57.8" font-family="Times,serif" font-size="14.00">2</text>
</g>
<!-- 7 -->
<g id="node11" class="node">
<title>7</title>
<ellipse fill="none" stroke="black" cx="368.19" cy="-105" rx="27" ry="18"/>
<text text-anchor="middle" x="368.19" y="-101.3" font-family="Times,serif" font-size="14.00">7</text>
</g>
<!-- 7&#45;&gt;None -->
<g id="edge22" class="edge">
<title>7&#45;&gt;None</title>
<path fill="none" stroke="black" stroke-width="1.07" d="M386.81,-91.66C396.57,-85.08 408.64,-76.77 419.19,-69 427.86,-62.62 429.72,-60.64 438.19,-54 444.08,-49.38 450.42,-44.44 456.43,-39.77"/>
<polygon fill="black" stroke="black" stroke-width="1.07" points="458.59,-42.52 464.34,-33.61 454.3,-36.99 458.59,-42.52"/>
<text text-anchor="middle" x="447.69" y="-57.8" font-family="Times,serif" font-size="14.00">10</text>
</g>
<!-- 7&#45;&gt;L. elongatus -->
<g id="edge21" class="edge">
<title>7&#45;&gt;L. elongatus</title>
<path fill="none" stroke="black" stroke-width="0.43" d="M347.62,-92.74C339.06,-86.88 330,-78.86 325.19,-69 321.79,-62.03 320.64,-53.83 320.59,-46.11"/>
<polygon fill="black" stroke="black" stroke-width="0.43" points="324.09,-46.2 321.08,-36.04 317.1,-45.86 324.09,-46.2"/>
<text text-anchor="middle" x="330.19" y="-57.8" font-family="Times,serif" font-size="14.00">4</text>
</g>
<!-- 9 -->
<g id="node12" class="node">
<title>9</title>
<ellipse fill="none" stroke="black" cx="620.19" cy="-105" rx="27" ry="18"/>
<text text-anchor="middle" x="620.19" y="-101.3" font-family="Times,serif" font-size="14.00">9</text>
</g>
<!-- 9&#45;&gt;None -->
<g id="edge26" class="edge">
<title>9&#45;&gt;None</title>
<path fill="none" stroke="black" stroke-width="3" d="M609.81,-88.15C601.97,-77.26 590.34,-63.16 577.19,-54 561.43,-43.02 541.79,-35 524.54,-29.43"/>
<polygon fill="black" stroke="black" stroke-width="3" points="525.3,-26 514.71,-26.43 523.26,-32.7 525.3,-26"/>
<text text-anchor="middle" x="602.69" y="-57.8" font-family="Times,serif" font-size="14.00">28</text>
</g>
<!-- 9&#45;&gt;L. elongatus -->
<g id="edge25" class="edge">
<title>9&#45;&gt;L. elongatus</title>
<path fill="none" stroke="black" stroke-width="0.21" d="M597.54,-94.76C570.44,-83.96 523.55,-66.02 482.19,-54 451.42,-45.06 416.71,-37.14 387.67,-31.1"/>
<polygon fill="black" stroke="black" stroke-width="0.21" points="388.15,-27.63 377.65,-29.05 386.75,-34.48 388.15,-27.63"/>
<text text-anchor="middle" x="533.19" y="-57.8" font-family="Times,serif" font-size="14.00">2</text>
</g>
<!-- 10 -->
<g id="node13" class="node">
<title>10</title>
<ellipse fill="none" stroke="black" cx="641.19" cy="-18" rx="27" ry="18"/>
<text text-anchor="middle" x="641.19" y="-14.3" font-family="Times,serif" font-size="14.00">10</text>
</g>
<!-- 9&#45;&gt;10 -->
<g id="edge23" class="edge">
<title>9&#45;&gt;10</title>
<path fill="none" stroke="black" stroke-width="0.21" d="M624.34,-87.21C627.26,-75.41 631.22,-59.38 634.57,-45.82"/>
<polygon fill="black" stroke="black" stroke-width="0.21" points="637.98,-46.6 636.98,-36.05 631.18,-44.92 637.98,-46.6"/>
<text text-anchor="middle" x="636.19" y="-57.8" font-family="Times,serif" font-size="14.00">2</text>
</g>
<!-- 11 -->
<g id="node14" class="node">
<title>11</title>
<ellipse fill="none" stroke="black" cx="713.19" cy="-18" rx="27" ry="18"/>
<text text-anchor="middle" x="713.19" y="-14.3" font-family="Times,serif" font-size="14.00">11</text>
</g>
<!-- 9&#45;&gt;11 -->
<g id="edge24" class="edge">
<title>9&#45;&gt;11</title>
<path fill="none" stroke="black" stroke-width="0.21" d="M635.55,-89.96C650.36,-76.43 672.96,-55.77 689.97,-40.22"/>
<polygon fill="black" stroke="black" stroke-width="0.21" points="692.79,-42.39 697.81,-33.06 688.07,-37.22 692.79,-42.39"/>
<text text-anchor="middle" x="677.19" y="-57.8" font-family="Times,serif" font-size="14.00">2</text>
</g>
</g>
</svg>
