<?xml version="1.0" encoding="UTF-8" standalone="no"?>
<!DOCTYPE svg PUBLIC "-//W3C//DTD SVG 1.1//EN"
 "http://www.w3.org/Graphics/SVG/1.1/DTD/svg11.dtd">
<!-- Generated by graphviz version 2.43.0 (0)
 -->
<!-- Title: %3 Pages: 1 -->
<svg width="158pt" height="131pt"
 viewBox="0.00 0.00 157.64 131.00" xmlns="http://www.w3.org/2000/svg" xmlns:xlink="http://www.w3.org/1999/xlink">
<g id="graph0" class="graph" transform="scale(1 1) rotate(0) translate(4 127)">
<title>%3</title>
<polygon fill="white" stroke="transparent" points="-4,4 -4,-127 153.64,-127 153.64,4 -4,4"/>
<!-- Left -->
<g id="node1" class="node">
<title>Left</title>
<ellipse fill="none" stroke="black" cx="29.25" cy="-105" rx="29.5" ry="18"/>
<text text-anchor="middle" x="29.25" y="-101.3" font-family="Times,serif" font-size="14.00">Left</text>
</g>
<!-- unknown -->
<g id="node2" class="node">
<title>unknown</title>
<ellipse fill="none" stroke="black" cx="71.25" cy="-18" rx="52.79" ry="18"/>
<text text-anchor="middle" x="71.25" y="-14.3" font-family="Times,serif" font-size="14.00">unknown</text>
</g>
<!-- Left&#45;&gt;unknown -->
<g id="edge1" class="edge">
<title>Left&#45;&gt;unknown</title>
<path fill="none" stroke="black" stroke-width="3" d="M37.35,-87.61C43.31,-75.54 51.54,-58.88 58.4,-45"/>
<polygon fill="black" stroke="black" stroke-width="3" points="61.59,-46.44 62.89,-35.92 55.32,-43.34 61.59,-46.44"/>
<text text-anchor="middle" x="67.25" y="-57.8" font-family="Times,serif" font-size="14.00">147</text>
</g>
<!-- Right -->
<g id="node3" class="node">
<title>Right</title>
<ellipse fill="none" stroke="black" cx="113.25" cy="-105" rx="36.29" ry="18"/>
<text text-anchor="middle" x="113.25" y="-101.3" font-family="Times,serif" font-size="14.00">Right</text>
</g>
<!-- Right&#45;&gt;unknown -->
<g id="edge2" class="edge">
<title>Right&#45;&gt;unknown</title>
<path fill="none" stroke="black" stroke-width="2.76" d="M104.95,-87.21C99.01,-75.18 90.89,-58.75 84.11,-45.03"/>
<polygon fill="black" stroke="black" stroke-width="2.76" points="87.24,-43.46 79.67,-36.05 80.96,-46.57 87.24,-43.46"/>
<text text-anchor="middle" x="108.25" y="-57.8" font-family="Times,serif" font-size="14.00">135</text>
</g>
</g>
</svg>
