<?xml version="1.0" encoding="UTF-8" standalone="no"?>
<!DOCTYPE svg PUBLIC "-//W3C//DTD SVG 1.1//EN"
 "http://www.w3.org/Graphics/SVG/1.1/DTD/svg11.dtd">
<!-- Generated by graphviz version 2.43.0 (0)
 -->
<!-- Title: %3 Pages: 1 -->
<svg width="1141pt" height="566pt"
 viewBox="0.00 0.00 1140.94 566.00" xmlns="http://www.w3.org/2000/svg" xmlns:xlink="http://www.w3.org/1999/xlink">
<g id="graph0" class="graph" transform="scale(1 1) rotate(0) translate(4 562)">
<title>%3</title>
<polygon fill="white" stroke="transparent" points="-4,4 -4,-562 1136.94,-562 1136.94,4 -4,4"/>
<!-- 1 -->
<g id="node1" class="node">
<title>1</title>
<ellipse fill="none" stroke="black" cx="583.94" cy="-540" rx="27" ry="18"/>
<text text-anchor="middle" x="583.94" y="-536.3" font-family="Times,serif" font-size="14.00">1</text>
</g>
<!-- 2 -->
<g id="node2" class="node">
<title>2</title>
<ellipse fill="none" stroke="black" cx="646.94" cy="-453" rx="27" ry="18"/>
<text text-anchor="middle" x="646.94" y="-449.3" font-family="Times,serif" font-size="14.00">2</text>
</g>
<!-- 1&#45;&gt;2 -->
<g id="edge1" class="edge">
<title>1&#45;&gt;2</title>
<path fill="none" stroke="black" stroke-width="1.2" d="M600.07,-525.3C606.7,-519.19 614.16,-511.65 619.94,-504 625.59,-496.53 630.76,-487.73 635.03,-479.61"/>
<polygon fill="black" stroke="black" stroke-width="1.2" points="638.24,-481.02 639.6,-470.52 631.98,-477.88 638.24,-481.02"/>
<text text-anchor="middle" x="638.44" y="-492.8" font-family="Times,serif" font-size="14.00">16</text>
</g>
<!-- 5 -->
<g id="node3" class="node">
<title>5</title>
<ellipse fill="none" stroke="black" cx="254.94" cy="-279" rx="27" ry="18"/>
<text text-anchor="middle" x="254.94" y="-275.3" font-family="Times,serif" font-size="14.00">5</text>
</g>
<!-- 1&#45;&gt;5 -->
<g id="edge2" class="edge">
<title>1&#45;&gt;5</title>
<path fill="none" stroke="black" stroke-width="0.3" d="M556.93,-537.78C484.67,-534.28 291,-523.19 269.94,-504 215.03,-453.97 233.57,-354.28 246.63,-306.6"/>
<polygon fill="black" stroke="black" stroke-width="0.3" points="250.07,-307.3 249.46,-296.72 243.34,-305.37 250.07,-307.3"/>
<text text-anchor="middle" x="238.94" y="-405.8" font-family="Times,serif" font-size="14.00">4</text>
</g>
<!-- 6 -->
<g id="node4" class="node">
<title>6</title>
<ellipse fill="none" stroke="black" cx="479.94" cy="-366" rx="27" ry="18"/>
<text text-anchor="middle" x="479.94" y="-362.3" font-family="Times,serif" font-size="14.00">6</text>
</g>
<!-- 1&#45;&gt;6 -->
<g id="edge3" class="edge">
<title>1&#45;&gt;6</title>
<path fill="none" stroke="black" stroke-width="0.3" d="M558.13,-534.42C537.91,-529.71 510.08,-520.64 490.94,-504 460.21,-477.27 465.57,-425.28 472.56,-393.59"/>
<polygon fill="black" stroke="black" stroke-width="0.3" points="476,-394.23 474.94,-383.69 469.2,-392.6 476,-394.23"/>
<text text-anchor="middle" x="476.94" y="-449.3" font-family="Times,serif" font-size="14.00">4</text>
</g>
<!-- 7 -->
<g id="node5" class="node">
<title>7</title>
<ellipse fill="none" stroke="black" cx="704.94" cy="-279" rx="27" ry="18"/>
<text text-anchor="middle" x="704.94" y="-275.3" font-family="Times,serif" font-size="14.00">7</text>
</g>
<!-- 1&#45;&gt;7 -->
<g id="edge4" class="edge">
<title>1&#45;&gt;7</title>
<path fill="none" stroke="black" stroke-width="0.6" d="M606.5,-529.75C620.31,-523.53 637.95,-514.55 651.94,-504 724.07,-449.63 735.33,-417.7 756.94,-330 758.54,-323.53 760.08,-320.88 756.94,-315 752.36,-306.39 744.62,-299.52 736.49,-294.23"/>
<polygon fill="black" stroke="black" stroke-width="0.6" points="738.05,-291.09 727.64,-289.1 734.53,-297.14 738.05,-291.09"/>
<text text-anchor="middle" x="739.94" y="-405.8" font-family="Times,serif" font-size="14.00">8</text>
</g>
<!-- 8 -->
<g id="node6" class="node">
<title>8</title>
<ellipse fill="none" stroke="black" cx="403.94" cy="-192" rx="27" ry="18"/>
<text text-anchor="middle" x="403.94" y="-188.3" font-family="Times,serif" font-size="14.00">8</text>
</g>
<!-- 1&#45;&gt;8 -->
<g id="edge5" class="edge">
<title>1&#45;&gt;8</title>
<path fill="none" stroke="black" stroke-width="0.15" d="M557.76,-535.39C534.42,-531.11 500.29,-522.13 475.94,-504 400.61,-447.88 383.87,-419.69 355.94,-330 343.49,-290.01 367.44,-244.19 385.78,-216.98"/>
<polygon fill="black" stroke="black" stroke-width="0.15" points="388.85,-218.69 391.72,-208.5 383.11,-214.68 388.85,-218.69"/>
<text text-anchor="middle" x="379.94" y="-362.3" font-family="Times,serif" font-size="14.00">2</text>
</g>
<!-- None -->
<g id="node7" class="node">
<title>None</title>
<ellipse fill="none" stroke="black" cx="627.94" cy="-18" rx="35.19" ry="18"/>
<text text-anchor="middle" x="627.94" y="-14.3" font-family="Times,serif" font-size="14.00">None</text>
</g>
<!-- 1&#45;&gt;None -->
<g id="edge6" class="edge">
<title>1&#45;&gt;None</title>
<path fill="none" stroke="black" stroke-width="0.15" d="M611.15,-539.29C677.39,-539.45 851.96,-536.46 992.94,-504 1053.27,-490.11 1122.94,-515.9 1122.94,-454 1122.94,-454 1122.94,-454 1122.94,-104 1122.94,-58.57 794.83,-30.77 672.88,-22.01"/>
<polygon fill="black" stroke="black" stroke-width="0.15" points="672.97,-18.51 662.75,-21.29 672.48,-25.49 672.97,-18.51"/>
<text text-anchor="middle" x="1127.94" y="-275.3" font-family="Times,serif" font-size="14.00">2</text>
</g>
<!-- conspecific 3 -->
<g id="node8" class="node">
<title>conspecific 3</title>
<ellipse fill="none" stroke="black" cx="725.94" cy="-105" rx="70.39" ry="18"/>
<text text-anchor="middle" x="725.94" y="-101.3" font-family="Times,serif" font-size="14.00">conspecific 3</text>
</g>
<!-- 1&#45;&gt;conspecific 3 -->
<g id="edge7" class="edge">
<title>1&#45;&gt;conspecific 3</title>
<path fill="none" stroke="black" stroke-width="0.6" d="M611.07,-539.1C670.32,-538.71 815.32,-534.42 931.94,-504 985.87,-489.93 1046.94,-509.73 1046.94,-454 1046.94,-454 1046.94,-454 1046.94,-191 1046.94,-140.8 898.39,-119.56 803.4,-111.12"/>
<polygon fill="black" stroke="black" stroke-width="0.6" points="803.5,-107.61 793.24,-110.24 802.9,-114.59 803.5,-107.61"/>
<text text-anchor="middle" x="1051.94" y="-318.8" font-family="Times,serif" font-size="14.00">8</text>
</g>
<!-- cunningtoni -->
<g id="node9" class="node">
<title>cunningtoni</title>
<ellipse fill="none" stroke="black" cx="914.94" cy="-192" rx="65.79" ry="18"/>
<text text-anchor="middle" x="914.94" y="-188.3" font-family="Times,serif" font-size="14.00">cunningtoni</text>
</g>
<!-- 1&#45;&gt;cunningtoni -->
<g id="edge8" class="edge">
<title>1&#45;&gt;cunningtoni</title>
<path fill="none" stroke="black" stroke-width="0.3" d="M611.13,-538.7C697.8,-537.01 961.94,-525.97 961.94,-454 961.94,-454 961.94,-454 961.94,-278 961.94,-255.8 949.52,-233.96 937.45,-217.98"/>
<polygon fill="black" stroke="black" stroke-width="0.3" points="939.83,-215.36 930.86,-209.74 934.37,-219.73 939.83,-215.36"/>
<text text-anchor="middle" x="966.94" y="-362.3" font-family="Times,serif" font-size="14.00">4</text>
</g>
<!-- 2&#45;&gt;1 -->
<g id="edge9" class="edge">
<title>2&#45;&gt;1</title>
<path fill="none" stroke="black" stroke-width="1.5" d="M625.75,-464.3C615.64,-470.21 604.2,-478.56 596.94,-489 592.25,-495.76 589.25,-504.1 587.33,-512.02"/>
<polygon fill="black" stroke="black" stroke-width="1.5" points="583.86,-511.53 585.38,-522.02 590.73,-512.87 583.86,-511.53"/>
<text text-anchor="middle" x="606.44" y="-492.8" font-family="Times,serif" font-size="14.00">20</text>
</g>
<!-- 2&#45;&gt;6 -->
<g id="edge10" class="edge">
<title>2&#45;&gt;6</title>
<path fill="none" stroke="black" stroke-width="0.15" d="M624.02,-443.32C607.13,-436.69 583.76,-427.02 563.94,-417 544.57,-407.21 523.59,-394.72 507.44,-384.67"/>
<polygon fill="black" stroke="black" stroke-width="0.15" points="508.87,-381.44 498.54,-379.08 505.15,-387.37 508.87,-381.44"/>
<text text-anchor="middle" x="568.94" y="-405.8" font-family="Times,serif" font-size="14.00">2</text>
</g>
<!-- 2&#45;&gt;7 -->
<g id="edge11" class="edge">
<title>2&#45;&gt;7</title>
<path fill="none" stroke="black" stroke-width="0.45" d="M654.37,-435.37C656.87,-429.59 659.61,-423.04 661.94,-417 676.68,-378.84 680.12,-369.16 691.94,-330 694.19,-322.56 696.4,-314.43 698.35,-306.93"/>
<polygon fill="black" stroke="black" stroke-width="0.45" points="701.75,-307.77 700.82,-297.22 694.96,-306.05 701.75,-307.77"/>
<text text-anchor="middle" x="690.94" y="-362.3" font-family="Times,serif" font-size="14.00">6</text>
</g>
<!-- 2&#45;&gt;8 -->
<g id="edge12" class="edge">
<title>2&#45;&gt;8</title>
<path fill="none" stroke="black" stroke-width="0.45" d="M640.91,-435.36C638.91,-429.58 636.73,-423.04 634.94,-417 632.41,-408.43 602.11,-267.46 595.94,-261 576.72,-240.86 562.37,-251.75 535.94,-243 495.1,-229.48 485.05,-225.58 444.94,-210 442.02,-208.86 438.99,-207.66 435.96,-206.44"/>
<polygon fill="black" stroke="black" stroke-width="0.45" points="437.01,-203.08 426.43,-202.54 434.36,-209.56 437.01,-203.08"/>
<text text-anchor="middle" x="618.94" y="-318.8" font-family="Times,serif" font-size="14.00">6</text>
</g>
<!-- 2&#45;&gt;None -->
<g id="edge13" class="edge">
<title>2&#45;&gt;None</title>
<path fill="none" stroke="black" stroke-width="0.75" d="M670.38,-443.55C689.26,-436.65 716.44,-426.52 739.94,-417 914.34,-346.37 1171.56,-293.2 1060.94,-141 1014.66,-77.31 772.71,-38.27 672,-24.56"/>
<polygon fill="black" stroke="black" stroke-width="0.75" points="672.23,-21.06 661.85,-23.19 671.3,-27.99 672.23,-21.06"/>
<text text-anchor="middle" x="1094.44" y="-231.8" font-family="Times,serif" font-size="14.00">10</text>
</g>
<!-- conspecific 1 -->
<g id="node10" class="node">
<title>conspecific 1</title>
<ellipse fill="none" stroke="black" cx="760.94" cy="-192" rx="70.39" ry="18"/>
<text text-anchor="middle" x="760.94" y="-188.3" font-family="Times,serif" font-size="14.00">conspecific 1</text>
</g>
<!-- 2&#45;&gt;conspecific 1 -->
<g id="edge14" class="edge">
<title>2&#45;&gt;conspecific 1</title>
<path fill="none" stroke="black" stroke-width="0.9" d="M660.68,-437.4C666.24,-431.26 672.59,-423.94 677.94,-417 688.7,-403.04 691.27,-399.35 699.94,-384 720.97,-346.78 727.69,-337.64 740.94,-297 749.23,-271.58 754.56,-241.48 757.61,-220.22"/>
<polygon fill="black" stroke="black" stroke-width="0.9" points="761.09,-220.64 758.97,-210.26 754.15,-219.7 761.09,-220.64"/>
<text text-anchor="middle" x="743.44" y="-318.8" font-family="Times,serif" font-size="14.00">12</text>
</g>
<!-- conspecific 2 -->
<g id="node11" class="node">
<title>conspecific 2</title>
<ellipse fill="none" stroke="black" cx="529.94" cy="-105" rx="70.39" ry="18"/>
<text text-anchor="middle" x="529.94" y="-101.3" font-family="Times,serif" font-size="14.00">conspecific 2</text>
</g>
<!-- 2&#45;&gt;conspecific 2 -->
<g id="edge15" class="edge">
<title>2&#45;&gt;conspecific 2</title>
<path fill="none" stroke="black" stroke-width="0.75" d="M667.68,-441.29C750.19,-398.05 1047.97,-235.7 989.94,-174 967.6,-150.24 729.06,-161.72 696.94,-156 656.03,-148.72 610.97,-134.87 577.98,-123.58"/>
<polygon fill="black" stroke="black" stroke-width="0.75" points="578.74,-120.14 568.14,-120.18 576.44,-126.76 578.74,-120.14"/>
<text text-anchor="middle" x="959.44" y="-275.3" font-family="Times,serif" font-size="14.00">10</text>
</g>
<!-- 5&#45;&gt;1 -->
<g id="edge16" class="edge">
<title>5&#45;&gt;1</title>
<path fill="none" stroke="black" stroke-width="0.75" d="M258.1,-297.11C267.24,-344.64 295.14,-476.6 327.94,-504 360.33,-531.05 483.35,-537.24 546.32,-538.63"/>
<polygon fill="black" stroke="black" stroke-width="0.75" points="546.55,-542.13 556.62,-538.82 546.68,-535.13 546.55,-542.13"/>
<text text-anchor="middle" x="296.44" y="-405.8" font-family="Times,serif" font-size="14.00">10</text>
</g>
<!-- 5&#45;&gt;6 -->
<g id="edge17" class="edge">
<title>5&#45;&gt;6</title>
<path fill="none" stroke="black" stroke-width="0.15" d="M277.07,-289.67C301.19,-300.09 341.03,-316.93 375.94,-330 399.14,-338.69 425.61,-347.58 446.03,-354.23"/>
<polygon fill="black" stroke="black" stroke-width="0.15" points="445.23,-357.65 455.82,-357.39 447.39,-350.98 445.23,-357.65"/>
<text text-anchor="middle" x="380.94" y="-318.8" font-family="Times,serif" font-size="14.00">2</text>
</g>
<!-- 5&#45;&gt;8 -->
<g id="edge18" class="edge">
<title>5&#45;&gt;8</title>
<path fill="none" stroke="black" stroke-width="0.6" d="M277.39,-268.85C292.79,-262.29 313.51,-252.89 330.94,-243 335.81,-240.24 358.78,-224.43 377.67,-211.31"/>
<polygon fill="black" stroke="black" stroke-width="0.6" points="379.77,-214.12 385.99,-205.53 375.78,-208.37 379.77,-214.12"/>
<text text-anchor="middle" x="357.94" y="-231.8" font-family="Times,serif" font-size="14.00">8</text>
</g>
<!-- 5&#45;&gt;None -->
<g id="edge21" class="edge">
<title>5&#45;&gt;None</title>
<path fill="none" stroke="black" stroke-width="0.3" d="M245.43,-261.78C242.51,-256.03 239.62,-249.4 237.94,-243 220.34,-175.84 199.58,-138.68 245.94,-87 290.12,-37.75 491.41,-24.05 582.69,-20.33"/>
<polygon fill="black" stroke="black" stroke-width="0.3" points="582.88,-23.83 592.74,-19.95 582.62,-16.83 582.88,-23.83"/>
<text text-anchor="middle" x="223.94" y="-144.8" font-family="Times,serif" font-size="14.00">4</text>
</g>
<!-- 9 -->
<g id="node12" class="node">
<title>9</title>
<ellipse fill="none" stroke="black" cx="281.94" cy="-105" rx="27" ry="18"/>
<text text-anchor="middle" x="281.94" y="-101.3" font-family="Times,serif" font-size="14.00">9</text>
</g>
<!-- 5&#45;&gt;9 -->
<g id="edge19" class="edge">
<title>5&#45;&gt;9</title>
<path fill="none" stroke="black" stroke-width="0.15" d="M257.63,-260.88C262.32,-231 272.04,-169.11 277.66,-133.27"/>
<polygon fill="black" stroke="black" stroke-width="0.15" points="281.17,-133.47 279.27,-123.05 274.26,-132.39 281.17,-133.47"/>
<text text-anchor="middle" x="276.94" y="-188.3" font-family="Times,serif" font-size="14.00">2</text>
</g>
<!-- L. dardennii -->
<g id="node13" class="node">
<title>L. dardennii</title>
<ellipse fill="none" stroke="black" cx="66.94" cy="-18" rx="66.89" ry="18"/>
<text text-anchor="middle" x="66.94" y="-14.3" font-family="Times,serif" font-size="14.00">L. dardennii</text>
</g>
<!-- 5&#45;&gt;L. dardennii -->
<g id="edge20" class="edge">
<title>5&#45;&gt;L. dardennii</title>
<path fill="none" stroke="black" stroke-width="0.15" d="M228.54,-275.06C206.05,-271.24 174.25,-262.57 153.94,-243 97.37,-188.48 76.95,-92.95 70.11,-46.25"/>
<polygon fill="black" stroke="black" stroke-width="0.15" points="73.57,-45.71 68.75,-36.27 66.63,-46.65 73.57,-45.71"/>
<text text-anchor="middle" x="103.94" y="-144.8" font-family="Times,serif" font-size="14.00">2</text>
</g>
<!-- Xenotilapia spp. -->
<g id="node14" class="node">
<title>Xenotilapia spp.</title>
<ellipse fill="none" stroke="black" cx="236.94" cy="-18" rx="85.29" ry="18"/>
<text text-anchor="middle" x="236.94" y="-14.3" font-family="Times,serif" font-size="14.00">Xenotilapia spp.</text>
</g>
<!-- 5&#45;&gt;Xenotilapia spp. -->
<g id="edge22" class="edge">
<title>5&#45;&gt;Xenotilapia spp.</title>
<path fill="none" stroke="black" stroke-width="0.15" d="M228.48,-274.54C208.47,-270.48 181.96,-261.73 166.94,-243 142.44,-212.45 156.07,-195.04 152.94,-156 150.12,-120.71 148.6,-67.5 157.94,-54 162.57,-47.32 168.77,-41.9 175.67,-37.51"/>
<polygon fill="black" stroke="black" stroke-width="0.15" points="177.69,-40.39 184.73,-32.48 174.29,-34.28 177.69,-40.39"/>
<text text-anchor="middle" x="157.94" y="-144.8" font-family="Times,serif" font-size="14.00">2</text>
</g>
<!-- 6&#45;&gt;1 -->
<g id="edge23" class="edge">
<title>6&#45;&gt;1</title>
<path fill="none" stroke="black" stroke-width="0.3" d="M486.26,-383.56C496.9,-410.31 520.08,-464.07 548.94,-504 552.49,-508.91 556.74,-513.77 561.03,-518.23"/>
<polygon fill="black" stroke="black" stroke-width="0.3" points="558.61,-520.76 568.18,-525.31 563.54,-515.78 558.61,-520.76"/>
<text text-anchor="middle" x="532.94" y="-449.3" font-family="Times,serif" font-size="14.00">4</text>
</g>
<!-- 6&#45;&gt;2 -->
<g id="edge24" class="edge">
<title>6&#45;&gt;2</title>
<path fill="none" stroke="black" stroke-width="0.3" d="M504.2,-374.22C523.6,-380.42 551.22,-390.21 573.94,-402 578.91,-404.58 601.87,-420.41 620.73,-433.58"/>
<polygon fill="black" stroke="black" stroke-width="0.3" points="618.83,-436.53 629.03,-439.39 622.84,-430.79 618.83,-436.53"/>
<text text-anchor="middle" x="599.94" y="-405.8" font-family="Times,serif" font-size="14.00">4</text>
</g>
<!-- 6&#45;&gt;5 -->
<g id="edge25" class="edge">
<title>6&#45;&gt;5</title>
<path fill="none" stroke="black" stroke-width="0.15" d="M453.34,-362.15C421.83,-358.05 368.28,-348.83 325.94,-330 308.99,-322.46 291.94,-310.62 278.79,-300.35"/>
<polygon fill="black" stroke="black" stroke-width="0.15" points="280.74,-297.43 270.75,-293.89 276.36,-302.88 280.74,-297.43"/>
<text text-anchor="middle" x="330.94" y="-318.8" font-family="Times,serif" font-size="14.00">2</text>
</g>
<!-- 6&#45;&gt;7 -->
<g id="edge26" class="edge">
<title>6&#45;&gt;7</title>
<path fill="none" stroke="black" stroke-width="0.15" d="M499.66,-353.43C519.07,-342.41 549.81,-325.92 577.94,-315 608.11,-303.29 643.73,-293.83 669.56,-287.71"/>
<polygon fill="black" stroke="black" stroke-width="0.15" points="670.69,-291.04 679.64,-285.38 669.11,-284.22 670.69,-291.04"/>
<text text-anchor="middle" x="582.94" y="-318.8" font-family="Times,serif" font-size="14.00">2</text>
</g>
<!-- 6&#45;&gt;8 -->
<g id="edge27" class="edge">
<title>6&#45;&gt;8</title>
<path fill="none" stroke="black" stroke-width="0.3" d="M462.28,-352.22C447.11,-340.02 426.39,-320.11 417.94,-297 408.8,-271.97 405.53,-241.58 404.42,-220.14"/>
<polygon fill="black" stroke="black" stroke-width="0.3" points="407.91,-219.96 404.01,-210.1 400.92,-220.24 407.91,-219.96"/>
<text text-anchor="middle" x="422.94" y="-275.3" font-family="Times,serif" font-size="14.00">4</text>
</g>
<!-- 6&#45;&gt;None -->
<g id="edge28" class="edge">
<title>6&#45;&gt;None</title>
<path fill="none" stroke="black" stroke-width="0.45" d="M476.89,-348.08C469.76,-306.37 454.24,-200.06 475.94,-174 504.29,-139.98 534.44,-176.01 573.94,-156 593.02,-146.34 598.74,-141.79 608.94,-123 621.84,-99.27 626.19,-68.46 627.55,-46.55"/>
<polygon fill="black" stroke="black" stroke-width="0.45" points="631.06,-46.43 628.02,-36.28 624.07,-46.12 631.06,-46.43"/>
<text text-anchor="middle" x="480.94" y="-188.3" font-family="Times,serif" font-size="14.00">6</text>
</g>
<!-- conspecific 4 -->
<g id="node15" class="node">
<title>conspecific 4</title>
<ellipse fill="none" stroke="black" cx="564.94" cy="-192" rx="70.39" ry="18"/>
<text text-anchor="middle" x="564.94" y="-188.3" font-family="Times,serif" font-size="14.00">conspecific 4</text>
</g>
<!-- 6&#45;&gt;conspecific 4 -->
<g id="edge29" class="edge">
<title>6&#45;&gt;conspecific 4</title>
<path fill="none" stroke="black" stroke-width="0.15" d="M498.13,-352.17C524.5,-332.31 572.24,-291.34 590.94,-243 594.18,-234.65 591.77,-225.87 587.35,-218.05"/>
<polygon fill="black" stroke="black" stroke-width="0.15" points="590.19,-216.01 581.69,-209.69 584.4,-219.93 590.19,-216.01"/>
<text text-anchor="middle" x="586.94" y="-275.3" font-family="Times,serif" font-size="14.00">2</text>
</g>
<!-- 7&#45;&gt;1 -->
<g id="edge30" class="edge">
<title>7&#45;&gt;1</title>
<path fill="none" stroke="black" stroke-width="3" d="M729.85,-286.24C744.58,-291.35 762.05,-300.22 770.94,-315 794.85,-354.74 768.19,-374.81 748.94,-417 737.55,-441.98 736.99,-450.31 718.94,-471 702.88,-489.42 696.33,-492.17 674.94,-504 656.99,-513.93 635.64,-522.31 618.13,-528.37"/>
<polygon fill="black" stroke="black" stroke-width="3" points="616.68,-525.16 608.32,-531.67 618.91,-531.8 616.68,-525.16"/>
<text text-anchor="middle" x="765.44" y="-405.8" font-family="Times,serif" font-size="14.00">40</text>
</g>
<!-- 7&#45;&gt;6 -->
<g id="edge31" class="edge">
<title>7&#45;&gt;6</title>
<path fill="none" stroke="black" stroke-width="0.15" d="M694.84,-295.75C686.62,-307.2 673.94,-322.02 658.94,-330 612.12,-354.93 592.81,-336.86 540.94,-348 532.14,-349.89 522.72,-352.31 513.98,-354.73"/>
<polygon fill="black" stroke="black" stroke-width="0.15" points="512.78,-351.44 504.12,-357.54 514.69,-358.17 512.78,-351.44"/>
<text text-anchor="middle" x="682.94" y="-318.8" font-family="Times,serif" font-size="14.00">2</text>
</g>
<!-- 7&#45;&gt;8 -->
<g id="edge32" class="edge">
<title>7&#45;&gt;8</title>
<path fill="none" stroke="black" stroke-width="0.45" d="M682.31,-268.66C675.78,-266.07 668.61,-263.33 661.94,-261 636.06,-251.95 629.06,-251.34 602.94,-243 582.86,-236.59 578.42,-233.01 557.94,-228 508.54,-215.92 493.88,-223.83 444.94,-210 441.76,-209.1 438.48,-208.02 435.24,-206.85"/>
<polygon fill="black" stroke="black" stroke-width="0.45" points="436.32,-203.52 425.74,-203.15 433.78,-210.04 436.32,-203.52"/>
<text text-anchor="middle" x="607.94" y="-231.8" font-family="Times,serif" font-size="14.00">6</text>
</g>
<!-- 7&#45;&gt;None -->
<g id="edge33" class="edge">
<title>7&#45;&gt;None</title>
<path fill="none" stroke="black" stroke-width="0.9" d="M694.53,-262.18C681.72,-240.51 663.76,-201.22 681.94,-174 714.81,-124.79 772.07,-172.21 804.94,-123 813.83,-109.69 814,-100.19 804.94,-87 775.41,-44.01 714.64,-28.19 672.6,-22.37"/>
<polygon fill="black" stroke="black" stroke-width="0.9" points="672.97,-18.89 662.62,-21.13 672.11,-25.84 672.97,-18.89"/>
<text text-anchor="middle" x="794.44" y="-144.8" font-family="Times,serif" font-size="14.00">12</text>
</g>
<!-- 7&#45;&gt;cunningtoni -->
<g id="edge36" class="edge">
<title>7&#45;&gt;cunningtoni</title>
<path fill="none" stroke="black" stroke-width="0.15" d="M727.42,-268.9C761.43,-255.14 826.64,-228.74 870.47,-211"/>
<polygon fill="black" stroke="black" stroke-width="0.15" points="871.8,-214.24 879.76,-207.24 869.18,-207.75 871.8,-214.24"/>
<text text-anchor="middle" x="826.94" y="-231.8" font-family="Times,serif" font-size="14.00">2</text>
</g>
<!-- 7&#45;&gt;conspecific 1 -->
<g id="edge34" class="edge">
<title>7&#45;&gt;conspecific 1</title>
<path fill="none" stroke="black" stroke-width="0.15" d="M714.91,-262.15C721.16,-252.28 729.43,-239.34 736.94,-228 739.02,-224.87 741.22,-221.59 743.41,-218.36"/>
<polygon fill="black" stroke="black" stroke-width="0.15" points="746.36,-220.25 749.12,-210.02 740.58,-216.3 746.36,-220.25"/>
<text text-anchor="middle" x="741.94" y="-231.8" font-family="Times,serif" font-size="14.00">2</text>
</g>
<!-- 7&#45;&gt;conspecific 4 -->
<g id="edge35" class="edge">
<title>7&#45;&gt;conspecific 4</title>
<path fill="none" stroke="black" stroke-width="0.15" d="M683.82,-267.52C670.71,-260.85 653.62,-251.82 638.94,-243 630.65,-238.02 612.83,-226 596.77,-214.99"/>
<polygon fill="black" stroke="black" stroke-width="0.15" points="598.32,-211.81 588.09,-209.03 594.35,-217.58 598.32,-211.81"/>
<text text-anchor="middle" x="643.94" y="-231.8" font-family="Times,serif" font-size="14.00">2</text>
</g>
<!-- 8&#45;&gt;1 -->
<g id="edge37" class="edge">
<title>8&#45;&gt;1</title>
<path fill="none" stroke="black" stroke-width="1.2" d="M424.59,-203.86C456.98,-222.09 519.15,-262.12 548.94,-315 567.66,-348.21 578.09,-459.43 582.06,-511.58"/>
<polygon fill="black" stroke="black" stroke-width="1.2" points="578.59,-512.04 582.81,-521.76 585.57,-511.53 578.59,-512.04"/>
<text text-anchor="middle" x="577.44" y="-362.3" font-family="Times,serif" font-size="14.00">16</text>
</g>
<!-- 8&#45;&gt;2 -->
<g id="edge38" class="edge">
<title>8&#45;&gt;2</title>
<path fill="none" stroke="black" stroke-width="0.15" d="M425.8,-202.93C431.91,-205.46 438.62,-208.03 444.94,-210 481.4,-221.36 492.76,-215.82 528.94,-228 543.83,-233.01 546.36,-237.17 560.94,-243 584.44,-252.38 598.04,-242.18 614.94,-261 655.89,-306.57 654.76,-384.04 650.71,-424.9"/>
<polygon fill="black" stroke="black" stroke-width="0.15" points="647.22,-424.61 649.58,-434.93 654.17,-425.39 647.22,-424.61"/>
<text text-anchor="middle" x="650.94" y="-318.8" font-family="Times,serif" font-size="14.00">2</text>
</g>
<!-- 8&#45;&gt;6 -->
<g id="edge39" class="edge">
<title>8&#45;&gt;6</title>
<path fill="none" stroke="black" stroke-width="0.3" d="M411.49,-209.36C414.18,-215.23 417.21,-221.9 419.94,-228 437.23,-266.63 456.83,-311.6 468.78,-339.18"/>
<polygon fill="black" stroke="black" stroke-width="0.3" points="465.64,-340.73 472.82,-348.51 472.06,-337.95 465.64,-340.73"/>
<text text-anchor="middle" x="455.94" y="-275.3" font-family="Times,serif" font-size="14.00">4</text>
</g>
<!-- 8&#45;&gt;None -->
<g id="edge41" class="edge">
<title>8&#45;&gt;None</title>
<path fill="none" stroke="black" stroke-width="1.05" d="M406.56,-173.93C410.88,-147.81 420.22,-99.59 431.94,-87 471.46,-44.58 538.77,-28.62 583.3,-22.62"/>
<polygon fill="black" stroke="black" stroke-width="1.05" points="583.77,-26.09 593.27,-21.39 582.91,-19.14 583.77,-26.09"/>
<text text-anchor="middle" x="441.44" y="-101.3" font-family="Times,serif" font-size="14.00">14</text>
</g>
<!-- 8&#45;&gt;conspecific 3 -->
<g id="edge44" class="edge">
<title>8&#45;&gt;conspecific 3</title>
<path fill="none" stroke="black" stroke-width="0.6" d="M425.84,-181.18C431.95,-178.65 438.64,-176.05 444.94,-174 517.98,-150.18 604.13,-130.54 661.61,-118.59"/>
<polygon fill="black" stroke="black" stroke-width="0.6" points="662.55,-121.97 671.64,-116.52 661.14,-115.11 662.55,-121.97"/>
<text text-anchor="middle" x="564.94" y="-144.8" font-family="Times,serif" font-size="14.00">8</text>
</g>
<!-- 8&#45;&gt;conspecific 2 -->
<g id="edge43" class="edge">
<title>8&#45;&gt;conspecific 2</title>
<path fill="none" stroke="black" stroke-width="1.2" d="M422.27,-178.64C441.96,-165.35 473.66,-143.97 497.57,-127.84"/>
<polygon fill="black" stroke="black" stroke-width="1.2" points="499.66,-130.65 506,-122.16 495.75,-124.85 499.66,-130.65"/>
<text text-anchor="middle" x="484.44" y="-144.8" font-family="Times,serif" font-size="14.00">16</text>
</g>
<!-- 8&#45;&gt;9 -->
<g id="edge40" class="edge">
<title>8&#45;&gt;9</title>
<path fill="none" stroke="black" stroke-width="0.6" d="M390.52,-176.23C380.34,-165.59 365.64,-151.33 350.94,-141 339.41,-132.89 325.74,-125.55 313.62,-119.71"/>
<polygon fill="black" stroke="black" stroke-width="0.6" points="314.84,-116.42 304.3,-115.36 311.88,-122.76 314.84,-116.42"/>
<text text-anchor="middle" x="373.94" y="-144.8" font-family="Times,serif" font-size="14.00">8</text>
</g>
<!-- 8&#45;&gt;Xenotilapia spp. -->
<g id="edge42" class="edge">
<title>8&#45;&gt;Xenotilapia spp.</title>
<path fill="none" stroke="black" stroke-width="0.15" d="M400.97,-174.01C394.89,-141.2 380.19,-70.9 362.94,-54 351.47,-42.75 336.7,-35.04 321.34,-29.78"/>
<polygon fill="black" stroke="black" stroke-width="0.15" points="322.31,-26.42 311.72,-26.81 320.24,-33.11 322.31,-26.42"/>
<text text-anchor="middle" x="394.94" y="-101.3" font-family="Times,serif" font-size="14.00">2</text>
</g>
<!-- 9&#45;&gt;1 -->
<g id="edge45" class="edge">
<title>9&#45;&gt;1</title>
<path fill="none" stroke="black" stroke-width="0.45" d="M256.78,-112.16C197.68,-128.29 54.94,-177.63 54.94,-278 54.94,-454 54.94,-454 54.94,-454 54.94,-503.89 426.42,-529.85 546.79,-536.96"/>
<polygon fill="black" stroke="black" stroke-width="0.45" points="546.8,-540.46 556.98,-537.55 547.2,-533.48 546.8,-540.46"/>
<text text-anchor="middle" x="59.94" y="-318.8" font-family="Times,serif" font-size="14.00">6</text>
</g>
<!-- 9&#45;&gt;5 -->
<g id="edge46" class="edge">
<title>9&#45;&gt;5</title>
<path fill="none" stroke="black" stroke-width="1.5" d="M269.94,-121.44C260.52,-134.58 248.16,-154.41 242.94,-174 236.07,-199.81 241.04,-230.26 246.52,-251.51"/>
<polygon fill="black" stroke="black" stroke-width="1.5" points="243.15,-252.46 249.21,-261.15 249.9,-250.58 243.15,-252.46"/>
<text text-anchor="middle" x="252.44" y="-188.3" font-family="Times,serif" font-size="14.00">20</text>
</g>
<!-- 9&#45;&gt;6 -->
<g id="edge47" class="edge">
<title>9&#45;&gt;6</title>
<path fill="none" stroke="black" stroke-width="0.15" d="M286.02,-122.85C294.41,-157.16 313.36,-232.78 319.94,-243 352.25,-293.14 412.64,-330.67 449.27,-350.1"/>
<polygon fill="black" stroke="black" stroke-width="0.15" points="448,-353.38 458.49,-354.87 451.22,-347.17 448,-353.38"/>
<text text-anchor="middle" x="324.94" y="-231.8" font-family="Times,serif" font-size="14.00">2</text>
</g>
<!-- 9&#45;&gt;8 -->
<g id="edge48" class="edge">
<title>9&#45;&gt;8</title>
<path fill="none" stroke="black" stroke-width="0.6" d="M296.97,-120.52C308.28,-131.04 324.43,-145.25 339.94,-156 350.41,-163.25 362.53,-170.21 373.39,-175.98"/>
<polygon fill="black" stroke="black" stroke-width="0.6" points="372.04,-179.22 382.53,-180.72 375.27,-173.01 372.04,-179.22"/>
<text text-anchor="middle" x="344.94" y="-144.8" font-family="Times,serif" font-size="14.00">8</text>
</g>
<!-- 9&#45;&gt;None -->
<g id="edge50" class="edge">
<title>9&#45;&gt;None</title>
<path fill="none" stroke="black" stroke-width="0.6" d="M302.5,-93.33C325.42,-81.88 363.89,-63.99 398.94,-54 461.51,-36.16 536.44,-26.89 583.13,-22.48"/>
<polygon fill="black" stroke="black" stroke-width="0.6" points="583.58,-25.96 593.22,-21.57 582.95,-18.99 583.58,-25.96"/>
<text text-anchor="middle" x="403.94" y="-57.8" font-family="Times,serif" font-size="14.00">8</text>
</g>
<!-- 9&#45;&gt;L. dardennii -->
<g id="edge49" class="edge">
<title>9&#45;&gt;L. dardennii</title>
<path fill="none" stroke="black" stroke-width="0.15" d="M259.34,-95.06C224.69,-81.36 157.72,-54.89 112.67,-37.08"/>
<polygon fill="black" stroke="black" stroke-width="0.15" points="113.71,-33.73 103.13,-33.3 111.14,-40.24 113.71,-33.73"/>
<text text-anchor="middle" x="192.94" y="-57.8" font-family="Times,serif" font-size="14.00">2</text>
</g>
<!-- 9&#45;&gt;Xenotilapia spp. -->
<g id="edge51" class="edge">
<title>9&#45;&gt;Xenotilapia spp.</title>
<path fill="none" stroke="black" stroke-width="0.15" d="M273.27,-87.61C266.88,-75.54 258.06,-58.88 250.71,-45"/>
<polygon fill="black" stroke="black" stroke-width="0.15" points="253.67,-43.12 245.9,-35.92 247.49,-46.4 253.67,-43.12"/>
<text text-anchor="middle" x="267.94" y="-57.8" font-family="Times,serif" font-size="14.00">2</text>
</g>
</g>
</svg>
