<?xml version="1.0" encoding="UTF-8" standalone="no"?>
<!DOCTYPE svg PUBLIC "-//W3C//DTD SVG 1.1//EN"
 "http://www.w3.org/Graphics/SVG/1.1/DTD/svg11.dtd">
<!-- Generated by graphviz version 2.43.0 (0)
 -->
<!-- Title: %3 Pages: 1 -->
<svg width="2223pt" height="1112pt"
 viewBox="0.00 0.00 2223.00 1112.16" xmlns="http://www.w3.org/2000/svg" xmlns:xlink="http://www.w3.org/1999/xlink">
<g id="graph0" class="graph" transform="scale(1 1) rotate(0) translate(4 1108.16)">
<title>%3</title>
<polygon fill="white" stroke="transparent" points="-4,4 -4,-1108.16 2219,-1108.16 2219,4 -4,4"/>
<!-- S&#45;bend &#45; 287.18 -->
<g id="node1" class="node">
<title>S&#45;bend &#45; 287.18</title>
<ellipse fill="#53ffa9" stroke="black" cx="1825" cy="-1070.16" rx="72.5" ry="34"/>
<text text-anchor="middle" x="1825" y="-1066.46" font-family="Times,serif" font-size="14.00">S&#45;bend &#45; 287.18</text>
</g>
<!-- S&#45;bend &#45; 287.18&#45;&gt;S&#45;bend &#45; 287.18 -->
<g id="edge1" class="edge">
<title>S&#45;bend &#45; 287.18&#45;&gt;S&#45;bend &#45; 287.18</title>
<path fill="none" stroke="black" stroke-width="0.88" d="M1894.44,-1080.4C1906.84,-1079.07 1915.5,-1075.66 1915.5,-1070.16 1915.5,-1066.3 1911.22,-1063.46 1904.36,-1061.66"/>
<polygon fill="black" stroke="black" stroke-width="0.88" points="1904.89,-1058.2 1894.44,-1059.92 1903.68,-1065.09 1904.89,-1058.2"/>
<text text-anchor="middle" x="1925" y="-1066.46" font-family="Times,serif" font-size="14.00">14</text>
</g>
<!-- belly display &#45; 16.26 -->
<g id="node2" class="node">
<title>belly display &#45; 16.26</title>
<ellipse fill="#afffd7" stroke="black" cx="1372" cy="-968.9" rx="113.69" ry="16.03"/>
<text text-anchor="middle" x="1372" y="-965.2" font-family="Times,serif" font-size="14.00">belly display &#45; 16.26</text>
</g>
<!-- S&#45;bend &#45; 287.18&#45;&gt;belly display &#45; 16.26 -->
<g id="edge2" class="edge">
<title>S&#45;bend &#45; 287.18&#45;&gt;belly display &#45; 16.26</title>
<path fill="none" stroke="black" stroke-width="0.3" d="M1760.1,-1054.94C1675.38,-1036.38 1527.73,-1004.02 1441.02,-985.02"/>
<polygon fill="black" stroke="black" stroke-width="0.3" points="1441.54,-981.55 1431.02,-982.83 1440.04,-988.39 1441.54,-981.55"/>
<text text-anchor="middle" x="1589" y="-1006.96" font-family="Times,serif" font-size="14.00">2</text>
</g>
<!-- biting &#45; 4.58 -->
<g id="node3" class="node">
<title>biting &#45; 4.58</title>
<ellipse fill="#d4ffe9" stroke="black" cx="2057" cy="-378.61" rx="73.58" ry="16.03"/>
<text text-anchor="middle" x="2057" y="-374.91" font-family="Times,serif" font-size="14.00">biting &#45; 4.58</text>
</g>
<!-- S&#45;bend &#45; 287.18&#45;&gt;biting &#45; 4.58 -->
<g id="edge3" class="edge">
<title>S&#45;bend &#45; 287.18&#45;&gt;biting &#45; 4.58</title>
<path fill="none" stroke="black" stroke-width="0.3" d="M1897.46,-1067C1964.55,-1060.67 2054,-1039.23 2054,-969.9 2054,-969.9 2054,-969.9 2054,-499.61 2054,-467.08 2055.12,-429.6 2055.99,-405.31"/>
<polygon fill="black" stroke="black" stroke-width="0.3" points="2059.49,-405.26 2056.36,-395.14 2052.49,-405 2059.49,-405.26"/>
<text text-anchor="middle" x="2059" y="-742.67" font-family="Times,serif" font-size="14.00">2</text>
</g>
<!-- fin spread &#45; 3.24 -->
<g id="node4" class="node">
<title>fin spread &#45; 3.24</title>
<ellipse fill="#ddffee" stroke="black" cx="1611" cy="-968.9" rx="94.09" ry="16.03"/>
<text text-anchor="middle" x="1611" y="-965.2" font-family="Times,serif" font-size="14.00">fin spread &#45; 3.24</text>
</g>
<!-- S&#45;bend &#45; 287.18&#45;&gt;fin spread &#45; 3.24 -->
<g id="edge4" class="edge">
<title>S&#45;bend &#45; 287.18&#45;&gt;fin spread &#45; 3.24</title>
<path fill="none" stroke="black" stroke-width="0.09" d="M1774.28,-1045.64C1736.78,-1028.24 1686.37,-1004.86 1651.53,-988.7"/>
<polygon fill="black" stroke="black" stroke-width="0.09" points="1652.68,-985.37 1642.14,-984.34 1649.74,-991.72 1652.68,-985.37"/>
<text text-anchor="middle" x="1716" y="-1006.96" font-family="Times,serif" font-size="14.00">1</text>
</g>
<!-- quivering &#45; 10.37 -->
<g id="node5" class="node">
<title>quivering &#45; 10.37</title>
<ellipse fill="#bdffde" stroke="black" cx="101" cy="-16.26" rx="98.08" ry="16.03"/>
<text text-anchor="middle" x="101" y="-12.56" font-family="Times,serif" font-size="14.00">quivering &#45; 10.37</text>
</g>
<!-- S&#45;bend &#45; 287.18&#45;&gt;quivering &#45; 10.37 -->
<g id="edge5" class="edge">
<title>S&#45;bend &#45; 287.18&#45;&gt;quivering &#45; 10.37</title>
<path fill="none" stroke="black" stroke-width="0.3" d="M1752.33,-1069.08C1412.9,-1068.21 0,-1059.24 0,-969.9 0,-969.9 0,-969.9 0,-98.79 0,-69.36 26.29,-48.74 52.04,-35.6"/>
<polygon fill="black" stroke="black" stroke-width="0.3" points="53.58,-38.74 61.08,-31.26 50.55,-32.43 53.58,-38.74"/>
<text text-anchor="middle" x="5" y="-496.91" font-family="Times,serif" font-size="14.00">2</text>
</g>
<!-- shell &#45; 3760.99 -->
<g id="node6" class="node">
<title>shell &#45; 3760.99</title>
<ellipse fill="#00ff7f" stroke="black" cx="1401" cy="-628.61" rx="108" ry="50.5"/>
<text text-anchor="middle" x="1401" y="-624.91" font-family="Times,serif" font-size="14.00">shell &#45; 3760.99</text>
</g>
<!-- S&#45;bend &#45; 287.18&#45;&gt;shell &#45; 3760.99 -->
<g id="edge6" class="edge">
<title>S&#45;bend &#45; 287.18&#45;&gt;shell &#45; 3760.99</title>
<path fill="none" stroke="black" stroke-width="0.09" d="M1824.1,-1036.09C1822.1,-1011.49 1816.42,-977.95 1801,-952.63 1722.59,-823.97 1573.67,-724.53 1481.31,-671.72"/>
<polygon fill="black" stroke="black" stroke-width="0.09" points="1482.98,-668.65 1472.56,-666.76 1479.53,-674.74 1482.98,-668.65"/>
<text text-anchor="middle" x="1768" y="-853.93" font-family="Times,serif" font-size="14.00">1</text>
</g>
<!-- shell escape &#45; 1423.61 -->
<g id="node7" class="node">
<title>shell escape &#45; 1423.61</title>
<ellipse fill="#1fff8f" stroke="black" cx="1372" cy="-857.63" rx="94.5" ry="44"/>
<text text-anchor="middle" x="1372" y="-853.93" font-family="Times,serif" font-size="14.00">shell escape &#45; 1423.61</text>
</g>
<!-- S&#45;bend &#45; 287.18&#45;&gt;shell escape &#45; 1423.61 -->
<g id="edge7" class="edge">
<title>S&#45;bend &#45; 287.18&#45;&gt;shell escape &#45; 1423.61</title>
<path fill="none" stroke="black" stroke-width="0.3" d="M1793.89,-1039.27C1786.93,-1032.41 1779.65,-1025.1 1773,-1018.16 1745.89,-989.87 1747.35,-973.22 1714,-952.63 1640.43,-907.23 1544.7,-883.35 1473.23,-871.05"/>
<polygon fill="black" stroke="black" stroke-width="0.3" points="1473.75,-867.59 1463.31,-869.39 1472.6,-874.49 1473.75,-867.59"/>
<text text-anchor="middle" x="1752" y="-965.2" font-family="Times,serif" font-size="14.00">2</text>
</g>
<!-- shooting out &#45; 8.7 -->
<g id="node8" class="node">
<title>shooting out &#45; 8.7</title>
<ellipse fill="#c2ffe0" stroke="black" cx="1893" cy="-266.84" rx="100.32" ry="16.03"/>
<text text-anchor="middle" x="1893" y="-263.14" font-family="Times,serif" font-size="14.00">shooting out &#45; 8.7</text>
</g>
<!-- S&#45;bend &#45; 287.18&#45;&gt;shooting out &#45; 8.7 -->
<g id="edge8" class="edge">
<title>S&#45;bend &#45; 287.18&#45;&gt;shooting out &#45; 8.7</title>
<path fill="none" stroke="black" stroke-width="0.3" d="M1883.53,-1049.8C1918.04,-1034.31 1955,-1008.66 1955,-969.9 1955,-969.9 1955,-969.9 1955,-377.61 1955,-344.18 1932.93,-311.57 1915.13,-290.7"/>
<polygon fill="black" stroke="black" stroke-width="0.3" points="1917.58,-288.19 1908.33,-283.04 1912.35,-292.84 1917.58,-288.19"/>
<text text-anchor="middle" x="1960" y="-700.91" font-family="Times,serif" font-size="14.00">2</text>
</g>
<!-- belly display &#45; 16.26&#45;&gt;S&#45;bend &#45; 287.18 -->
<g id="edge9" class="edge">
<title>belly display &#45; 16.26&#45;&gt;S&#45;bend &#45; 287.18</title>
<path fill="none" stroke="black" stroke-width="0.09" d="M1409.95,-984.24C1439.15,-994.83 1480.68,-1008.95 1518,-1018.16 1594.15,-1036.95 1682.65,-1050.83 1745.02,-1059.33"/>
<polygon fill="black" stroke="black" stroke-width="0.09" points="1744.8,-1062.83 1755.18,-1060.7 1745.74,-1055.89 1744.8,-1062.83"/>
<text text-anchor="middle" x="1523" y="-1006.96" font-family="Times,serif" font-size="14.00">1</text>
</g>
<!-- belly display &#45; 16.26&#45;&gt;quivering &#45; 10.37 -->
<g id="edge10" class="edge">
<title>belly display &#45; 16.26&#45;&gt;quivering &#45; 10.37</title>
<path fill="none" stroke="black" stroke-width="0.09" d="M1260.67,-965.43C971.45,-958.56 211.24,-937.3 103,-901.63 70.1,-890.79 38,-893.27 38,-858.63 38,-858.63 38,-858.63 38,-98.79 38,-74.96 55.06,-53.86 71.42,-39.1"/>
<polygon fill="black" stroke="black" stroke-width="0.09" points="73.97,-41.52 79.32,-32.37 69.44,-36.19 73.97,-41.52"/>
<text text-anchor="middle" x="43" y="-444.91" font-family="Times,serif" font-size="14.00">1</text>
</g>
<!-- belly display &#45; 16.26&#45;&gt;shell escape &#45; 1423.61 -->
<g id="edge11" class="edge">
<title>belly display &#45; 16.26&#45;&gt;shell escape &#45; 1423.61</title>
<path fill="none" stroke="black" stroke-width="0.09" d="M1372,-952.24C1372,-941.6 1372,-926.84 1372,-912.18"/>
<polygon fill="black" stroke="black" stroke-width="0.09" points="1375.5,-912.1 1372,-902.1 1368.5,-912.1 1375.5,-912.1"/>
<text text-anchor="middle" x="1377" y="-923.43" font-family="Times,serif" font-size="14.00">1</text>
</g>
<!-- biting &#45; 4.58&#45;&gt;S&#45;bend &#45; 287.18 -->
<g id="edge12" class="edge">
<title>biting &#45; 4.58&#45;&gt;S&#45;bend &#45; 287.18</title>
<path fill="none" stroke="black" stroke-width="0.3" d="M2045.68,-395.02C2030.66,-417.04 2006,-459.31 2006,-499.61 2006,-969.9 2006,-969.9 2006,-969.9 2006,-1019.69 1952.69,-1044.67 1903.94,-1057.11"/>
<polygon fill="black" stroke="black" stroke-width="0.3" points="1902.85,-1053.77 1893.94,-1059.51 1904.49,-1060.58 1902.85,-1053.77"/>
<text text-anchor="middle" x="2011" y="-742.67" font-family="Times,serif" font-size="14.00">2</text>
</g>
<!-- biting &#45; 4.58&#45;&gt;shooting out &#45; 8.7 -->
<g id="edge14" class="edge">
<title>biting &#45; 4.58&#45;&gt;shooting out &#45; 8.7</title>
<path fill="none" stroke="black" stroke-width="0.3" d="M2050.51,-362.35C2042.37,-345 2026.78,-317.03 2005,-301.11 1994,-293.06 1981.05,-286.95 1967.95,-282.31"/>
<polygon fill="black" stroke="black" stroke-width="0.3" points="1968.99,-278.97 1958.4,-279.18 1966.82,-285.62 1968.99,-278.97"/>
<text text-anchor="middle" x="2024" y="-304.91" font-family="Times,serif" font-size="14.00">2</text>
</g>
<!-- carrying &#45; 7.17 -->
<g id="node11" class="node">
<title>carrying &#45; 7.17</title>
<ellipse fill="#c7ffe3" stroke="black" cx="328" cy="-183.32" rx="86.03" ry="16.03"/>
<text text-anchor="middle" x="328" y="-179.62" font-family="Times,serif" font-size="14.00">carrying &#45; 7.17</text>
</g>
<!-- biting &#45; 4.58&#45;&gt;carrying &#45; 7.17 -->
<g id="edge13" class="edge">
<title>biting &#45; 4.58&#45;&gt;carrying &#45; 7.17</title>
<path fill="none" stroke="black" stroke-width="0.09" d="M2059.06,-362.16C2061.72,-334.84 2062.68,-278.28 2030,-250.58 2014.55,-237.48 777.65,-198.23 422.42,-187.22"/>
<polygon fill="black" stroke="black" stroke-width="0.09" points="422.52,-183.72 412.42,-186.91 422.3,-190.72 422.52,-183.72"/>
<text text-anchor="middle" x="2056" y="-263.14" font-family="Times,serif" font-size="14.00">1</text>
</g>
<!-- quivering &#45; 10.37&#45;&gt;S&#45;bend &#45; 287.18 -->
<g id="edge15" class="edge">
<title>quivering &#45; 10.37&#45;&gt;S&#45;bend &#45; 287.18</title>
<path fill="none" stroke="black" stroke-width="0.3" d="M198.61,-18.46C612.95,-23.86 2205,-47.91 2205,-98.79 2205,-969.9 2205,-969.9 2205,-969.9 2205,-1030.98 2018.89,-1055.18 1907.16,-1064.21"/>
<polygon fill="black" stroke="black" stroke-width="0.3" points="1906.62,-1060.74 1896.92,-1065.01 1907.16,-1067.72 1906.62,-1060.74"/>
<text text-anchor="middle" x="2210" y="-496.91" font-family="Times,serif" font-size="14.00">2</text>
</g>
<!-- quivering &#45; 10.37&#45;&gt;shell &#45; 3760.99 -->
<g id="edge16" class="edge">
<title>quivering &#45; 10.37&#45;&gt;shell &#45; 3760.99</title>
<path fill="none" stroke="black" stroke-width="0.09" d="M108.03,-32.53C114.79,-48.65 124,-74.97 124,-98.79 124,-226.08 124,-226.08 124,-226.08 124,-391.27 137.37,-490.12 287,-560.11 323.04,-576.97 963.32,-575.15 1003,-578.11 1099.72,-585.32 1209.02,-599.34 1288.57,-610.62"/>
<polygon fill="black" stroke="black" stroke-width="0.09" points="1288.22,-614.11 1298.61,-612.05 1289.21,-607.18 1288.22,-614.11"/>
<text text-anchor="middle" x="130" y="-263.14" font-family="Times,serif" font-size="14.00">1</text>
</g>
<!-- quivering &#45; 10.37&#45;&gt;shell escape &#45; 1423.61 -->
<g id="edge17" class="edge">
<title>quivering &#45; 10.37&#45;&gt;shell escape &#45; 1423.61</title>
<path fill="none" stroke="black" stroke-width="0.09" d="M93.97,-32.53C87.21,-48.65 78,-74.97 78,-98.79 78,-226.08 78,-226.08 78,-226.08 78,-470.83 30.09,-588.42 202,-762.63 275.97,-837.6 993.36,-852.79 1266.84,-855.86"/>
<polygon fill="black" stroke="black" stroke-width="0.09" points="1267.12,-859.36 1277.16,-855.97 1267.2,-852.36 1267.12,-859.36"/>
<text text-anchor="middle" x="81" y="-374.91" font-family="Times,serif" font-size="14.00">1</text>
</g>
<!-- shell &#45; 3760.99&#45;&gt;S&#45;bend &#45; 287.18 -->
<g id="edge18" class="edge">
<title>shell &#45; 3760.99&#45;&gt;S&#45;bend &#45; 287.18</title>
<path fill="none" stroke="black" stroke-width="0.42" d="M1496.03,-652.64C1581.4,-678.12 1704.18,-727.45 1777,-813.63 1786.55,-824.94 1827.44,-951.31 1834,-1003.16 1834.95,-1010.66 1834.83,-1018.63 1834.12,-1026.35"/>
<polygon fill="black" stroke="black" stroke-width="0.42" points="1830.64,-1025.92 1832.89,-1036.28 1837.59,-1026.78 1830.64,-1025.92"/>
<text text-anchor="middle" x="1814" y="-853.93" font-family="Times,serif" font-size="14.00">3</text>
</g>
<!-- shell &#45; 3760.99&#45;&gt;belly display &#45; 16.26 -->
<g id="edge20" class="edge">
<title>shell &#45; 3760.99&#45;&gt;belly display &#45; 16.26</title>
<path fill="none" stroke="black" stroke-width="0.09" d="M1293.52,-633.94C994.53,-647.08 169.73,-691.19 90,-780.63 11.02,-869.24 933.88,-939.04 1260.15,-960.81"/>
<polygon fill="black" stroke="black" stroke-width="0.09" points="1260.36,-964.33 1270.57,-961.5 1260.82,-957.35 1260.36,-964.33"/>
<text text-anchor="middle" x="95" y="-784.43" font-family="Times,serif" font-size="14.00">1</text>
</g>
<!-- shell &#45; 3760.99&#45;&gt;shell &#45; 3760.99 -->
<g id="edge24" class="edge">
<title>shell &#45; 3760.99&#45;&gt;shell &#45; 3760.99</title>
<path fill="none" stroke="black" d="M1505.76,-640.94C1518.59,-638.73 1527,-634.62 1527,-628.61 1527,-624.38 1522.84,-621.09 1515.91,-618.75"/>
<polygon fill="black" stroke="black" points="1516.31,-615.24 1505.76,-616.28 1514.65,-622.04 1516.31,-615.24"/>
<text text-anchor="middle" x="1536.5" y="-624.91" font-family="Times,serif" font-size="14.00">21</text>
</g>
<!-- shell &#45; 3760.99&#45;&gt;shell escape &#45; 1423.61 -->
<g id="edge25" class="edge">
<title>shell &#45; 3760.99&#45;&gt;shell escape &#45; 1423.61</title>
<path fill="none" stroke="black" stroke-width="0.81" d="M1420.6,-678.51C1428.41,-703.49 1434.77,-734.48 1431,-762.63 1428.98,-777.7 1428.97,-782.13 1422,-795.63 1419.76,-799.97 1417.18,-804.28 1414.39,-808.49"/>
<polygon fill="black" stroke="black" stroke-width="0.81" points="1411.32,-806.77 1408.42,-816.96 1417.04,-810.8 1411.32,-806.77"/>
<text text-anchor="middle" x="1442.5" y="-742.67" font-family="Times,serif" font-size="14.00">11</text>
</g>
<!-- shell &#45; 3760.99&#45;&gt;shooting out &#45; 8.7 -->
<g id="edge26" class="edge">
<title>shell &#45; 3760.99&#45;&gt;shooting out &#45; 8.7</title>
<path fill="none" stroke="black" stroke-width="0.3" d="M1507.96,-621.51C1608.16,-613.63 1748.39,-596.36 1789,-560.11 1878.49,-480.21 1808.27,-406.81 1865,-301.11 1866.82,-297.72 1869.03,-294.35 1871.39,-291.15"/>
<polygon fill="black" stroke="black" stroke-width="0.3" points="1874.33,-293.08 1877.88,-283.1 1868.88,-288.69 1874.33,-293.08"/>
<text text-anchor="middle" x="1844" y="-444.91" font-family="Times,serif" font-size="14.00">2</text>
</g>
<!-- away &#45; 1454.43 -->
<g id="node9" class="node">
<title>away &#45; 1454.43</title>
<ellipse fill="#1eff8e" stroke="black" cx="1284" cy="-378.61" rx="95" ry="44.5"/>
<text text-anchor="middle" x="1284" y="-374.91" font-family="Times,serif" font-size="14.00">away &#45; 1454.43</text>
</g>
<!-- shell &#45; 3760.99&#45;&gt;away &#45; 1454.43 -->
<g id="edge19" class="edge">
<title>shell &#45; 3760.99&#45;&gt;away &#45; 1454.43</title>
<path fill="none" stroke="black" stroke-width="0.09" d="M1407.09,-578.14C1408.77,-546.78 1406.77,-506.23 1391,-474.11 1381.01,-453.75 1364.5,-435.88 1347.39,-421.31"/>
<polygon fill="black" stroke="black" stroke-width="0.09" points="1349.47,-418.48 1339.52,-414.85 1345.03,-423.9 1349.47,-418.48"/>
<text text-anchor="middle" x="1411" y="-496.91" font-family="Times,serif" font-size="14.00">1</text>
</g>
<!-- shell &#45; 3760.99&#45;&gt;carrying &#45; 7.17 -->
<g id="edge21" class="edge">
<title>shell &#45; 3760.99&#45;&gt;carrying &#45; 7.17</title>
<path fill="none" stroke="black" stroke-width="0.42" d="M1298.61,-612.08C1218.39,-600.59 1103.85,-585.67 1003,-578.11 964.54,-575.22 342.26,-579.63 309,-560.11 270.68,-537.62 282.64,-511.09 258,-474.11 242.32,-450.59 232.25,-448.58 220,-423.11 195.89,-372.97 178.14,-354.99 192,-301.11 202.55,-260.06 205.88,-245.23 238,-217.58 246.31,-210.43 256.3,-204.75 266.56,-200.27"/>
<polygon fill="black" stroke="black" stroke-width="0.42" points="268.03,-203.45 276.01,-196.48 265.43,-196.95 268.03,-203.45"/>
<text text-anchor="middle" x="225" y="-374.91" font-family="Times,serif" font-size="14.00">3</text>
</g>
<!-- digging &#45; 90.57 -->
<g id="node12" class="node">
<title>digging &#45; 90.57</title>
<ellipse fill="#79ffbc" stroke="black" cx="1098" cy="-500.61" rx="69.25" ry="26.5"/>
<text text-anchor="middle" x="1098" y="-496.91" font-family="Times,serif" font-size="14.00">digging &#45; 90.57</text>
</g>
<!-- shell &#45; 3760.99&#45;&gt;digging &#45; 90.57 -->
<g id="edge22" class="edge">
<title>shell &#45; 3760.99&#45;&gt;digging &#45; 90.57</title>
<path fill="none" stroke="black" stroke-width="0.71" d="M1320.99,-594.34C1268.18,-572.37 1200.31,-544.15 1153.4,-524.64"/>
<polygon fill="black" stroke="black" stroke-width="0.71" points="1154.59,-521.35 1144.01,-520.74 1151.9,-527.81 1154.59,-521.35"/>
<text text-anchor="middle" x="1237" y="-548.91" font-family="Times,serif" font-size="14.00">8</text>
</g>
<!-- driving &#45; 1.45 -->
<g id="node17" class="node">
<title>driving &#45; 1.45</title>
<ellipse fill="#effff7" stroke="black" cx="1302" cy="-500.61" rx="79.81" ry="16.03"/>
<text text-anchor="middle" x="1302" y="-496.91" font-family="Times,serif" font-size="14.00">driving &#45; 1.45</text>
</g>
<!-- shell &#45; 3760.99&#45;&gt;driving &#45; 1.45 -->
<g id="edge23" class="edge">
<title>shell &#45; 3760.99&#45;&gt;driving &#45; 1.45</title>
<path fill="none" stroke="black" stroke-width="0.09" d="M1379.94,-578.74C1373.77,-567.1 1366.38,-555.15 1358,-545.11 1350.95,-536.66 1341.99,-528.8 1333.32,-522.16"/>
<polygon fill="black" stroke="black" stroke-width="0.09" points="1335.3,-519.27 1325.16,-516.18 1331.16,-524.91 1335.3,-519.27"/>
<text text-anchor="middle" x="1374" y="-548.91" font-family="Times,serif" font-size="14.00">1</text>
</g>
<!-- tail quiver &#45; 8.04 -->
<g id="node20" class="node">
<title>tail quiver &#45; 8.04</title>
<ellipse fill="#c4ffe1" stroke="black" cx="1249" cy="-746.37" rx="95.42" ry="16.03"/>
<text text-anchor="middle" x="1249" y="-742.67" font-family="Times,serif" font-size="14.00">tail quiver &#45; 8.04</text>
</g>
<!-- shell &#45; 3760.99&#45;&gt;tail quiver &#45; 8.04 -->
<g id="edge27" class="edge">
<title>shell &#45; 3760.99&#45;&gt;tail quiver &#45; 8.04</title>
<path fill="none" stroke="black" stroke-width="0.09" d="M1345.44,-671.93C1322.13,-689.68 1296.04,-709.54 1276.89,-724.13"/>
<polygon fill="black" stroke="black" stroke-width="0.09" points="1274.71,-721.39 1268.87,-730.24 1278.95,-726.96 1274.71,-721.39"/>
<text text-anchor="middle" x="1317" y="-700.91" font-family="Times,serif" font-size="14.00">1</text>
</g>
<!-- shell escape &#45; 1423.61&#45;&gt;S&#45;bend &#45; 287.18 -->
<g id="edge28" class="edge">
<title>shell escape &#45; 1423.61&#45;&gt;S&#45;bend &#45; 287.18</title>
<path fill="none" stroke="black" stroke-width="0.3" d="M1462.4,-870.49C1563.05,-885.38 1717.36,-913.76 1761,-952.63 1783.44,-972.63 1799.61,-1002.43 1810.08,-1026.89"/>
<polygon fill="black" stroke="black" stroke-width="0.3" points="1806.92,-1028.39 1813.95,-1036.31 1813.39,-1025.73 1806.92,-1028.39"/>
<text text-anchor="middle" x="1792" y="-965.2" font-family="Times,serif" font-size="14.00">2</text>
</g>
<!-- shell escape &#45; 1423.61&#45;&gt;shell &#45; 3760.99 -->
<g id="edge31" class="edge">
<title>shell escape &#45; 1423.61&#45;&gt;shell &#45; 3760.99</title>
<path fill="none" stroke="black" stroke-width="0.78" d="M1377.49,-813.67C1381.98,-778.5 1388.38,-728.37 1393.37,-689.3"/>
<polygon fill="black" stroke="black" stroke-width="0.78" points="1396.88,-689.48 1394.68,-679.12 1389.94,-688.59 1396.88,-689.48"/>
<text text-anchor="middle" x="1397.5" y="-742.67" font-family="Times,serif" font-size="14.00">10</text>
</g>
<!-- shell escape &#45; 1423.61&#45;&gt;shell escape &#45; 1423.61 -->
<g id="edge32" class="edge">
<title>shell escape &#45; 1423.61&#45;&gt;shell escape &#45; 1423.61</title>
<path fill="none" stroke="black" stroke-width="0.67" d="M1463.37,-869.01C1476.04,-867.14 1484.5,-863.35 1484.5,-857.63 1484.5,-853.62 1480.32,-850.55 1473.43,-848.43"/>
<polygon fill="black" stroke="black" stroke-width="0.67" points="1473.89,-844.95 1463.37,-846.26 1472.41,-851.79 1473.89,-844.95"/>
<text text-anchor="middle" x="1489.5" y="-853.93" font-family="Times,serif" font-size="14.00">7</text>
</g>
<!-- shell escape &#45; 1423.61&#45;&gt;shooting out &#45; 8.7 -->
<g id="edge33" class="edge">
<title>shell escape &#45; 1423.61&#45;&gt;shooting out &#45; 8.7</title>
<path fill="none" stroke="black" stroke-width="0.3" d="M1456.01,-837.34C1600.09,-801.8 1879,-721.17 1879,-629.61 1879,-629.61 1879,-629.61 1879,-377.61 1879,-348.55 1883.89,-315.51 1887.89,-293.34"/>
<polygon fill="black" stroke="black" stroke-width="0.3" points="1891.35,-293.87 1889.75,-283.4 1884.47,-292.58 1891.35,-293.87"/>
<text text-anchor="middle" x="1884" y="-548.91" font-family="Times,serif" font-size="14.00">2</text>
</g>
<!-- presence of Flavi &#45; 63.13 -->
<g id="node14" class="node">
<title>presence of Flavi &#45; 63.13</title>
<ellipse fill="#84ffc1" stroke="black" cx="706" cy="-378.61" rx="109.89" ry="24"/>
<text text-anchor="middle" x="706" y="-374.91" font-family="Times,serif" font-size="14.00">presence of Flavi &#45; 63.13</text>
</g>
<!-- shell escape &#45; 1423.61&#45;&gt;presence of Flavi &#45; 63.13 -->
<g id="edge30" class="edge">
<title>shell escape &#45; 1423.61&#45;&gt;presence of Flavi &#45; 63.13</title>
<path fill="none" stroke="black" stroke-width="0.09" d="M1284.72,-840.7C1244.82,-831.18 1197.88,-816.73 1159,-795.63 967.01,-691.5 792.62,-488.17 730.28,-410.65"/>
<polygon fill="black" stroke="black" stroke-width="0.09" points="732.89,-408.31 723.91,-402.69 727.42,-412.68 732.89,-408.31"/>
<text text-anchor="middle" x="994" y="-624.91" font-family="Times,serif" font-size="14.00">1</text>
</g>
<!-- presence of Elo &#45; 8.67 -->
<g id="node19" class="node">
<title>presence of Elo &#45; 8.67</title>
<ellipse fill="#c2ffe0" stroke="black" cx="707" cy="-266.84" rx="121.74" ry="16.03"/>
<text text-anchor="middle" x="707" y="-263.14" font-family="Times,serif" font-size="14.00">presence of Elo &#45; 8.67</text>
</g>
<!-- shell escape &#45; 1423.61&#45;&gt;presence of Elo &#45; 8.67 -->
<g id="edge29" class="edge">
<title>shell escape &#45; 1423.61&#45;&gt;presence of Elo &#45; 8.67</title>
<path fill="none" stroke="black" stroke-width="0.09" d="M1278.06,-852.73C1000.92,-840.59 206,-801.09 206,-747.37 206,-747.37 206,-747.37 206,-377.61 206,-331.52 234.57,-321.29 276,-301.11 327.02,-276.25 468.2,-269.15 575.19,-267.51"/>
<polygon fill="black" stroke="black" stroke-width="0.09" points="575.48,-271 585.43,-267.37 575.38,-264 575.48,-271"/>
<text text-anchor="middle" x="211" y="-548.91" font-family="Times,serif" font-size="14.00">1</text>
</g>
<!-- shell escape &#45; 1423.61&#45;&gt;tail quiver &#45; 8.04 -->
<g id="edge34" class="edge">
<title>shell escape &#45; 1423.61&#45;&gt;tail quiver &#45; 8.04</title>
<path fill="none" stroke="black" stroke-width="0.09" d="M1328.54,-818.27C1320.06,-810.77 1311.25,-802.96 1303,-795.63 1293.41,-787.11 1282.88,-777.7 1273.68,-769.48"/>
<polygon fill="black" stroke="black" stroke-width="0.09" points="1275.79,-766.67 1266,-762.61 1271.12,-771.89 1275.79,-766.67"/>
<text text-anchor="middle" x="1308" y="-784.43" font-family="Times,serif" font-size="14.00">1</text>
</g>
<!-- shooting out &#45; 8.7&#45;&gt;biting &#45; 4.58 -->
<g id="edge35" class="edge">
<title>shooting out &#45; 8.7&#45;&gt;biting &#45; 4.58</title>
<path fill="none" stroke="black" stroke-width="0.3" d="M1931.26,-281.92C1943.71,-287.19 1957.32,-293.72 1969,-301.11 1993.63,-316.69 2018.38,-338.94 2035.34,-355.43"/>
<polygon fill="black" stroke="black" stroke-width="0.3" points="2032.97,-358.01 2042.55,-362.55 2037.9,-353.03 2032.97,-358.01"/>
<text text-anchor="middle" x="1994" y="-304.91" font-family="Times,serif" font-size="14.00">2</text>
</g>
<!-- shooting out &#45; 8.7&#45;&gt;shell &#45; 3760.99 -->
<g id="edge39" class="edge">
<title>shooting out &#45; 8.7&#45;&gt;shell &#45; 3760.99</title>
<path fill="none" stroke="black" stroke-width="0.42" d="M1872.15,-282.76C1865.55,-288.09 1858.54,-294.44 1853,-301.11 1807.51,-355.92 1799.67,-374.29 1775,-441.11 1756.31,-491.72 1789.31,-522.12 1751,-560.11 1718.47,-592.36 1606.52,-609.88 1517.88,-618.93"/>
<polygon fill="black" stroke="black" stroke-width="0.42" points="1517.34,-615.46 1507.74,-619.94 1518.03,-622.43 1517.34,-615.46"/>
<text text-anchor="middle" x="1780" y="-444.91" font-family="Times,serif" font-size="14.00">3</text>
</g>
<!-- shooting out &#45; 8.7&#45;&gt;shell escape &#45; 1423.61 -->
<g id="edge40" class="edge">
<title>shooting out &#45; 8.7&#45;&gt;shell escape &#45; 1423.61</title>
<path fill="none" stroke="black" stroke-width="0.3" d="M1898.57,-283.24C1905.66,-304.27 1917,-343.28 1917,-377.61 1917,-553.61 1917,-553.61 1917,-553.61 1917,-611.76 1914.37,-632.2 1880,-679.11 1840.07,-733.6 1814.32,-734.28 1753,-762.63 1662.57,-804.45 1551.12,-829.17 1472.18,-842.68"/>
<polygon fill="black" stroke="black" stroke-width="0.3" points="1471.51,-839.24 1462.23,-844.35 1472.67,-846.14 1471.51,-839.24"/>
<text text-anchor="middle" x="1922" y="-548.91" font-family="Times,serif" font-size="14.00">2</text>
</g>
<!-- shooting out &#45; 8.7&#45;&gt;shooting out &#45; 8.7 -->
<g id="edge41" class="edge">
<title>shooting out &#45; 8.7&#45;&gt;shooting out &#45; 8.7</title>
<path fill="none" stroke="black" stroke-width="0.09" d="M1983.6,-273.92C1999.96,-273.01 2011.41,-270.65 2011.41,-266.84 2011.41,-263.9 2004.56,-261.82 1993.89,-260.61"/>
<polygon fill="black" stroke="black" stroke-width="0.09" points="1993.85,-257.1 1983.6,-259.77 1993.28,-264.07 1993.85,-257.1"/>
<text text-anchor="middle" x="2016.41" y="-263.14" font-family="Times,serif" font-size="14.00">1</text>
</g>
<!-- ramming &#45; 1.51 -->
<g id="node10" class="node">
<title>ramming &#45; 1.51</title>
<ellipse fill="#eefff6" stroke="black" cx="1284" cy="-99.79" rx="89.19" ry="16.03"/>
<text text-anchor="middle" x="1284" y="-96.09" font-family="Times,serif" font-size="14.00">ramming &#45; 1.51</text>
</g>
<!-- shooting out &#45; 8.7&#45;&gt;ramming &#45; 1.51 -->
<g id="edge38" class="edge">
<title>shooting out &#45; 8.7&#45;&gt;ramming &#45; 1.51</title>
<path fill="none" stroke="black" stroke-width="0.09" d="M1894.55,-250.48C1895.84,-228.45 1894.53,-188.19 1871,-167.05 1835.15,-134.84 1535.39,-114.2 1378.67,-105.51"/>
<polygon fill="black" stroke="black" stroke-width="0.09" points="1378.73,-102.01 1368.55,-104.96 1378.35,-109 1378.73,-102.01"/>
<text text-anchor="middle" x="1894" y="-179.62" font-family="Times,serif" font-size="14.00">1</text>
</g>
<!-- shooting out &#45; 8.7&#45;&gt;carrying &#45; 7.17 -->
<g id="edge36" class="edge">
<title>shooting out &#45; 8.7&#45;&gt;carrying &#45; 7.17</title>
<path fill="none" stroke="black" stroke-width="0.09" d="M1799.31,-260.99C1674.45,-254.52 1446.61,-242.71 1252,-232.58 947.37,-216.72 586.25,-197.83 420.07,-189.14"/>
<polygon fill="black" stroke="black" stroke-width="0.09" points="420.06,-185.63 409.89,-188.6 419.69,-192.62 420.06,-185.63"/>
<text text-anchor="middle" x="1257" y="-221.38" font-family="Times,serif" font-size="14.00">1</text>
</g>
<!-- head jolting &#45; 0.54 -->
<g id="node18" class="node">
<title>head jolting &#45; 0.54</title>
<ellipse fill="#fefffe" stroke="black" cx="1759" cy="-183.32" rx="103.48" ry="16.03"/>
<text text-anchor="middle" x="1759" y="-179.62" font-family="Times,serif" font-size="14.00">head jolting &#45; 0.54</text>
</g>
<!-- shooting out &#45; 8.7&#45;&gt;head jolting &#45; 0.54 -->
<g id="edge37" class="edge">
<title>shooting out &#45; 8.7&#45;&gt;head jolting &#45; 0.54</title>
<path fill="none" stroke="black" stroke-width="0.09" d="M1868.42,-250.89C1846.98,-237.85 1815.7,-218.81 1792.07,-204.44"/>
<polygon fill="black" stroke="black" stroke-width="0.09" points="1793.78,-201.38 1783.42,-199.18 1790.15,-207.36 1793.78,-201.38"/>
<text text-anchor="middle" x="1843" y="-221.38" font-family="Times,serif" font-size="14.00">1</text>
</g>
<!-- away &#45; 1454.43&#45;&gt;shell &#45; 3760.99 -->
<g id="edge44" class="edge">
<title>away &#45; 1454.43&#45;&gt;shell &#45; 3760.99</title>
<path fill="none" stroke="black" stroke-width="0.3" d="M1361.35,-404.78C1380.78,-410.93 1401.61,-417.39 1421,-423.11 1450.16,-431.71 1468.54,-416.94 1487,-441.11 1518.14,-481.88 1487.1,-535.75 1453.94,-575.1"/>
<polygon fill="black" stroke="black" stroke-width="0.3" points="1451.2,-572.92 1447.3,-582.77 1456.49,-577.51 1451.2,-572.92"/>
<text text-anchor="middle" x="1505" y="-496.91" font-family="Times,serif" font-size="14.00">2</text>
</g>
<!-- away &#45; 1454.43&#45;&gt;away &#45; 1454.43 -->
<g id="edge42" class="edge">
<title>away &#45; 1454.43&#45;&gt;away &#45; 1454.43</title>
<path fill="none" stroke="black" stroke-width="0.09" d="M1375.78,-390.32C1388.5,-388.39 1397,-384.49 1397,-378.61 1397,-374.47 1392.8,-371.32 1385.88,-369.14"/>
<polygon fill="black" stroke="black" stroke-width="0.09" points="1386.3,-365.64 1375.78,-366.9 1384.78,-372.48 1386.3,-365.64"/>
<text text-anchor="middle" x="1402" y="-374.91" font-family="Times,serif" font-size="14.00">1</text>
</g>
<!-- away &#45; 1454.43&#45;&gt;ramming &#45; 1.51 -->
<g id="edge43" class="edge">
<title>away &#45; 1454.43&#45;&gt;ramming &#45; 1.51</title>
<path fill="none" stroke="black" stroke-width="0.09" d="M1284,-334.05C1284,-275.57 1284,-173.56 1284,-126.24"/>
<polygon fill="black" stroke="black" stroke-width="0.09" points="1287.5,-126.23 1284,-116.23 1280.5,-126.23 1287.5,-126.23"/>
<text text-anchor="middle" x="1289" y="-221.38" font-family="Times,serif" font-size="14.00">1</text>
</g>
<!-- ramming &#45; 1.51&#45;&gt;S&#45;bend &#45; 287.18 -->
<g id="edge45" class="edge">
<title>ramming &#45; 1.51&#45;&gt;S&#45;bend &#45; 287.18</title>
<path fill="none" stroke="black" stroke-width="0.3" d="M1373.12,-99.9C1595.85,-98.86 2159,-103.98 2159,-182.32 2159,-969.9 2159,-969.9 2159,-969.9 2159,-1022.53 2004.66,-1049.48 1905.81,-1061.34"/>
<polygon fill="black" stroke="black" stroke-width="0.3" points="1905.36,-1057.87 1895.83,-1062.51 1906.17,-1064.82 1905.36,-1057.87"/>
<text text-anchor="middle" x="2164" y="-548.91" font-family="Times,serif" font-size="14.00">2</text>
</g>
<!-- ramming &#45; 1.51&#45;&gt;quivering &#45; 10.37 -->
<g id="edge46" class="edge">
<title>ramming &#45; 1.51&#45;&gt;quivering &#45; 10.37</title>
<path fill="none" stroke="black" stroke-width="0.09" d="M1202.22,-93.15C991.16,-78.61 428.7,-39.85 199.89,-24.08"/>
<polygon fill="black" stroke="black" stroke-width="0.09" points="199.79,-20.56 189.58,-23.37 199.31,-27.55 199.79,-20.56"/>
<text text-anchor="middle" x="804" y="-54.33" font-family="Times,serif" font-size="14.00">1</text>
</g>
<!-- carrying &#45; 7.17&#45;&gt;shell &#45; 3760.99 -->
<g id="edge49" class="edge">
<title>carrying &#45; 7.17&#45;&gt;shell &#45; 3760.99</title>
<path fill="none" stroke="black" stroke-width="0.09" d="M316.35,-199.61C312.29,-205.16 307.8,-211.56 304,-217.58 274.74,-264.03 270.35,-279.7 263,-334.11 257.7,-373.31 242.99,-388.99 263,-423.11 278.2,-449.02 293.61,-446.26 322,-456.11 412.3,-487.42 1029.27,-575.74 1287.61,-611.89"/>
<polygon fill="black" stroke="black" stroke-width="0.09" points="1287.38,-615.39 1297.77,-613.31 1288.35,-608.46 1287.38,-615.39"/>
<text text-anchor="middle" x="268" y="-374.91" font-family="Times,serif" font-size="14.00">1</text>
</g>
<!-- carrying &#45; 7.17&#45;&gt;ramming &#45; 1.51 -->
<g id="edge48" class="edge">
<title>carrying &#45; 7.17&#45;&gt;ramming &#45; 1.51</title>
<path fill="none" stroke="black" stroke-width="0.09" d="M404.62,-175.78C579.84,-160.84 1009.03,-124.24 1195.31,-108.35"/>
<polygon fill="black" stroke="black" stroke-width="0.09" points="1195.68,-111.84 1205.35,-107.5 1195.08,-104.86 1195.68,-111.84"/>
<text text-anchor="middle" x="897" y="-137.85" font-family="Times,serif" font-size="14.00">1</text>
</g>
<!-- carrying &#45; 7.17&#45;&gt;digging &#45; 90.57 -->
<g id="edge47" class="edge">
<title>carrying &#45; 7.17&#45;&gt;digging &#45; 90.57</title>
<path fill="none" stroke="black" stroke-width="0.5" d="M323.38,-199.83C311.79,-242.26 286.56,-361.22 347,-423.11 393.31,-470.53 835.41,-490.77 1018.84,-497.18"/>
<polygon fill="black" stroke="black" stroke-width="0.5" points="1018.85,-500.68 1028.96,-497.53 1019.09,-493.69 1018.85,-500.68"/>
<text text-anchor="middle" x="314" y="-304.91" font-family="Times,serif" font-size="14.00">4</text>
</g>
<!-- digging &#45; 90.57&#45;&gt;biting &#45; 4.58 -->
<g id="edge51" class="edge">
<title>digging &#45; 90.57&#45;&gt;biting &#45; 4.58</title>
<path fill="none" stroke="black" stroke-width="0.09" d="M1154.08,-484.97C1172.7,-480.7 1193.62,-476.54 1213,-474.11 1276.2,-466.18 1725.24,-475.21 1786,-456.11 1797.64,-452.45 1797.81,-445.98 1809,-441.11 1867.06,-415.84 1937.47,-399.63 1988.41,-390.23"/>
<polygon fill="black" stroke="black" stroke-width="0.09" points="1989.11,-393.66 1998.33,-388.44 1987.87,-386.77 1989.11,-393.66"/>
<text text-anchor="middle" x="1814" y="-444.91" font-family="Times,serif" font-size="14.00">1</text>
</g>
<!-- digging &#45; 90.57&#45;&gt;shell &#45; 3760.99 -->
<g id="edge58" class="edge">
<title>digging &#45; 90.57&#45;&gt;shell &#45; 3760.99</title>
<path fill="none" stroke="black" stroke-width="0.63" d="M1155.5,-515.59C1183.3,-523.08 1216.87,-533.22 1246,-545.11 1272.77,-556.03 1300.98,-570.19 1325.89,-583.68"/>
<polygon fill="black" stroke="black" stroke-width="0.63" points="1324.46,-586.89 1334.91,-588.61 1327.82,-580.74 1324.46,-586.89"/>
<text text-anchor="middle" x="1282" y="-548.91" font-family="Times,serif" font-size="14.00">6</text>
</g>
<!-- digging &#45; 90.57&#45;&gt;shell escape &#45; 1423.61 -->
<g id="edge59" class="edge">
<title>digging &#45; 90.57&#45;&gt;shell escape &#45; 1423.61</title>
<path fill="none" stroke="black" stroke-width="0.3" d="M1095.14,-527.1C1090.88,-577.86 1088.67,-692.71 1145,-762.63 1176.92,-802.25 1228.36,-825.36 1274.22,-838.74"/>
<polygon fill="black" stroke="black" stroke-width="0.3" points="1273.33,-842.12 1283.91,-841.45 1275.22,-835.38 1273.33,-842.12"/>
<text text-anchor="middle" x="1121" y="-700.91" font-family="Times,serif" font-size="14.00">2</text>
</g>
<!-- digging &#45; 90.57&#45;&gt;shooting out &#45; 8.7 -->
<g id="edge60" class="edge">
<title>digging &#45; 90.57&#45;&gt;shooting out &#45; 8.7</title>
<path fill="none" stroke="black" stroke-width="0.09" d="M1156.67,-486.21C1247.17,-465.44 1411.03,-427.39 1416,-423.11 1448.32,-395.25 1418.5,-360.53 1452,-334.11 1502.38,-294.38 1672.39,-278.32 1786,-271.93"/>
<polygon fill="black" stroke="black" stroke-width="0.09" points="1786.33,-275.42 1796.12,-271.38 1785.95,-268.43 1786.33,-275.42"/>
<text text-anchor="middle" x="1457" y="-374.91" font-family="Times,serif" font-size="14.00">1</text>
</g>
<!-- digging &#45; 90.57&#45;&gt;away &#45; 1454.43 -->
<g id="edge50" class="edge">
<title>digging &#45; 90.57&#45;&gt;away &#45; 1454.43</title>
<path fill="none" stroke="black" stroke-width="0.3" d="M1137.21,-478.43C1149.46,-471.55 1162.93,-463.73 1175,-456.11 1191.65,-445.6 1209.28,-433.62 1225.4,-422.3"/>
<polygon fill="black" stroke="black" stroke-width="0.3" points="1227.53,-425.09 1233.68,-416.46 1223.49,-419.37 1227.53,-425.09"/>
<text text-anchor="middle" x="1202" y="-444.91" font-family="Times,serif" font-size="14.00">2</text>
</g>
<!-- digging &#45; 90.57&#45;&gt;carrying &#45; 7.17 -->
<g id="edge52" class="edge">
<title>digging &#45; 90.57&#45;&gt;carrying &#45; 7.17</title>
<path fill="none" stroke="black" stroke-width="0.09" d="M1028.71,-498.23C874.63,-494.7 507.73,-483.61 387,-456.11 349.1,-447.47 329.31,-454.21 306,-423.11 251.19,-349.98 282.86,-304.19 312,-217.58 312.99,-214.64 314.18,-211.62 315.45,-208.66"/>
<polygon fill="black" stroke="black" stroke-width="0.09" points="318.64,-210.1 319.69,-199.55 312.3,-207.14 318.64,-210.1"/>
<text text-anchor="middle" x="288" y="-304.91" font-family="Times,serif" font-size="14.00">1</text>
</g>
<!-- digging &#45; 90.57&#45;&gt;digging &#45; 90.57 -->
<g id="edge53" class="edge">
<title>digging &#45; 90.57&#45;&gt;digging &#45; 90.57</title>
<path fill="none" stroke="black" stroke-width="0.95" d="M1163.16,-509.96C1176.13,-508.9 1185.37,-505.79 1185.37,-500.61 1185.37,-496.88 1180.6,-494.23 1173.09,-492.64"/>
<polygon fill="black" stroke="black" stroke-width="0.95" points="1173.54,-489.17 1163.16,-491.26 1172.58,-496.1 1173.54,-489.17"/>
<text text-anchor="middle" x="1194.87" y="-496.91" font-family="Times,serif" font-size="14.00">18</text>
</g>
<!-- operculum spread &#45; 0.5 -->
<g id="node13" class="node">
<title>operculum spread &#45; 0.5</title>
<ellipse fill="#ffffff" stroke="black" cx="1600" cy="-378.61" rx="128.89" ry="16.03"/>
<text text-anchor="middle" x="1600" y="-374.91" font-family="Times,serif" font-size="14.00">operculum spread &#45; 0.5</text>
</g>
<!-- digging &#45; 90.57&#45;&gt;operculum spread &#45; 0.5 -->
<g id="edge54" class="edge">
<title>digging &#45; 90.57&#45;&gt;operculum spread &#45; 0.5</title>
<path fill="none" stroke="black" stroke-width="0.09" d="M1154.73,-485.33C1173.21,-481.14 1193.88,-476.93 1213,-474.11 1319.26,-458.44 1350.73,-485.65 1454,-456.11 1496.45,-443.96 1540.77,-418.67 1569.28,-400.49"/>
<polygon fill="black" stroke="black" stroke-width="0.09" points="1571.47,-403.23 1577.96,-394.86 1567.67,-397.36 1571.47,-403.23"/>
<text text-anchor="middle" x="1498" y="-444.91" font-family="Times,serif" font-size="14.00">1</text>
</g>
<!-- digging &#45; 90.57&#45;&gt;presence of Flavi &#45; 63.13 -->
<g id="edge55" class="edge">
<title>digging &#45; 90.57&#45;&gt;presence of Flavi &#45; 63.13</title>
<path fill="none" stroke="black" stroke-width="0.09" d="M1030.05,-495.19C976.12,-490.07 899.5,-479.16 836,-456.11 803.3,-444.24 769.53,-424.09 744.61,-407.45"/>
<polygon fill="black" stroke="black" stroke-width="0.09" points="746.42,-404.45 736.18,-401.73 742.49,-410.24 746.42,-404.45"/>
<text text-anchor="middle" x="841" y="-444.91" font-family="Times,serif" font-size="14.00">1</text>
</g>
<!-- presence of Tetra &#45; 1.11 -->
<g id="node15" class="node">
<title>presence of Tetra &#45; 1.11</title>
<ellipse fill="#f3fff9" stroke="black" cx="993" cy="-378.61" rx="131.54" ry="16.03"/>
<text text-anchor="middle" x="993" y="-374.91" font-family="Times,serif" font-size="14.00">presence of Tetra &#45; 1.11</text>
</g>
<!-- digging &#45; 90.57&#45;&gt;presence of Tetra &#45; 1.11 -->
<g id="edge56" class="edge">
<title>digging &#45; 90.57&#45;&gt;presence of Tetra &#45; 1.11</title>
<path fill="none" stroke="black" stroke-width="0.09" d="M1076.75,-475.32C1058.24,-454.16 1031.57,-423.68 1013.33,-402.84"/>
<polygon fill="black" stroke="black" stroke-width="0.09" points="1015.77,-400.31 1006.55,-395.09 1010.5,-404.92 1015.77,-400.31"/>
<text text-anchor="middle" x="1063" y="-444.91" font-family="Times,serif" font-size="14.00">1</text>
</g>
<!-- scratching &#45; 1.01 -->
<g id="node16" class="node">
<title>scratching &#45; 1.01</title>
<ellipse fill="#f5fffa" stroke="black" cx="453" cy="-378.61" rx="96.75" ry="16.03"/>
<text text-anchor="middle" x="453" y="-374.91" font-family="Times,serif" font-size="14.00">scratching &#45; 1.01</text>
</g>
<!-- digging &#45; 90.57&#45;&gt;scratching &#45; 1.01 -->
<g id="edge57" class="edge">
<title>digging &#45; 90.57&#45;&gt;scratching &#45; 1.01</title>
<path fill="none" stroke="black" stroke-width="0.09" d="M1031.12,-493.46C932.79,-483.56 743.9,-461.22 587,-423.11 557.94,-416.05 526.07,-405.81 500.71,-397.04"/>
<polygon fill="black" stroke="black" stroke-width="0.09" points="501.56,-393.63 490.97,-393.63 499.25,-400.24 501.56,-393.63"/>
<text text-anchor="middle" x="745" y="-444.91" font-family="Times,serif" font-size="14.00">1</text>
</g>
<!-- operculum spread &#45; 0.5&#45;&gt;shell &#45; 3760.99 -->
<g id="edge61" class="edge">
<title>operculum spread &#45; 0.5&#45;&gt;shell &#45; 3760.99</title>
<path fill="none" stroke="black" stroke-width="0.09" d="M1593.33,-395.09C1578.29,-428.6 1538.86,-508.94 1486,-560.11 1479.54,-566.36 1472.53,-572.63 1465.4,-578.7"/>
<polygon fill="black" stroke="black" stroke-width="0.09" points="1463.07,-576.08 1457.65,-585.18 1467.56,-581.45 1463.07,-576.08"/>
<text text-anchor="middle" x="1555" y="-496.91" font-family="Times,serif" font-size="14.00">1</text>
</g>
<!-- presence of Flavi &#45; 63.13&#45;&gt;digging &#45; 90.57 -->
<g id="edge62" class="edge">
<title>presence of Flavi &#45; 63.13&#45;&gt;digging &#45; 90.57</title>
<path fill="none" stroke="black" stroke-width="0.09" d="M767.69,-398.49C840.83,-420.88 962.05,-457.99 1035.53,-480.49"/>
<polygon fill="black" stroke="black" stroke-width="0.09" points="1034.55,-483.84 1045.13,-483.42 1036.6,-477.15 1034.55,-483.84"/>
<text text-anchor="middle" x="954" y="-444.91" font-family="Times,serif" font-size="14.00">1</text>
</g>
<!-- presence of Flavi &#45; 63.13&#45;&gt;presence of Flavi &#45; 63.13 -->
<g id="edge64" class="edge">
<title>presence of Flavi &#45; 63.13&#45;&gt;presence of Flavi &#45; 63.13</title>
<path fill="none" stroke="black" stroke-width="0.71" d="M799.44,-391.33C819.46,-390.06 833.94,-385.82 833.94,-378.61 833.94,-372.69 824.2,-368.78 809.64,-366.86"/>
<polygon fill="black" stroke="black" stroke-width="0.71" points="809.73,-363.35 799.44,-365.89 809.06,-370.32 809.73,-363.35"/>
<text text-anchor="middle" x="838.94" y="-374.91" font-family="Times,serif" font-size="14.00">8</text>
</g>
<!-- presence of Flavi &#45; 63.13&#45;&gt;presence of Elo &#45; 8.67 -->
<g id="edge63" class="edge">
<title>presence of Flavi &#45; 63.13&#45;&gt;presence of Elo &#45; 8.67</title>
<path fill="none" stroke="black" stroke-width="0.3" d="M706.21,-354.6C706.37,-336.73 706.6,-311.97 706.77,-293.47"/>
<polygon fill="black" stroke="black" stroke-width="0.3" points="710.27,-293.43 706.86,-283.4 703.27,-293.37 710.27,-293.43"/>
<text text-anchor="middle" x="712" y="-304.91" font-family="Times,serif" font-size="14.00">2</text>
</g>
<!-- presence of Tetra &#45; 1.11&#45;&gt;digging &#45; 90.57 -->
<g id="edge65" class="edge">
<title>presence of Tetra &#45; 1.11&#45;&gt;digging &#45; 90.57</title>
<path fill="none" stroke="black" stroke-width="0.09" d="M998.92,-395C1005.8,-411.45 1018.35,-437.66 1035,-456.11 1040.2,-461.87 1046.3,-467.26 1052.62,-472.15"/>
<polygon fill="black" stroke="black" stroke-width="0.09" points="1050.57,-474.99 1060.7,-478.08 1054.71,-469.34 1050.57,-474.99"/>
<text text-anchor="middle" x="1040" y="-444.91" font-family="Times,serif" font-size="14.00">1</text>
</g>
<!-- scratching &#45; 1.01&#45;&gt;scratching &#45; 1.01 -->
<g id="edge66" class="edge">
<title>scratching &#45; 1.01&#45;&gt;scratching &#45; 1.01</title>
<path fill="none" stroke="black" stroke-width="0.09" d="M512.99,-391.4C542.1,-393.02 567.87,-388.76 567.87,-378.61 567.87,-369.65 547.79,-365.27 523.05,-365.49"/>
<polygon fill="black" stroke="black" stroke-width="0.09" points="522.87,-361.99 512.99,-365.82 523.1,-368.99 522.87,-361.99"/>
<text text-anchor="middle" x="572.87" y="-374.91" font-family="Times,serif" font-size="14.00">1</text>
</g>
<!-- driving &#45; 1.45&#45;&gt;shell &#45; 3760.99 -->
<g id="edge67" class="edge">
<title>driving &#45; 1.45&#45;&gt;shell &#45; 3760.99</title>
<path fill="none" stroke="black" stroke-width="0.3" d="M1312.38,-516.75C1320.7,-528.71 1332.78,-545.71 1344,-560.11 1347.42,-564.49 1351.01,-568.99 1354.66,-573.48"/>
<polygon fill="black" stroke="black" stroke-width="0.3" points="1352.21,-576.02 1361.26,-581.53 1357.62,-571.58 1352.21,-576.02"/>
<text text-anchor="middle" x="1349" y="-548.91" font-family="Times,serif" font-size="14.00">2</text>
</g>
<!-- head jolting &#45; 0.54&#45;&gt;shell &#45; 3760.99 -->
<g id="edge68" class="edge">
<title>head jolting &#45; 0.54&#45;&gt;shell &#45; 3760.99</title>
<path fill="none" stroke="black" stroke-width="0.09" d="M1759.42,-199.74C1760.41,-246.47 1761.3,-385.65 1738,-423.11 1683.89,-510.08 1577.87,-565.25 1499.12,-596.08"/>
<polygon fill="black" stroke="black" stroke-width="0.09" points="1497.74,-592.87 1489.66,-599.72 1500.25,-599.4 1497.74,-592.87"/>
<text text-anchor="middle" x="1761" y="-374.91" font-family="Times,serif" font-size="14.00">1</text>
</g>
<!-- presence of Elo &#45; 8.67&#45;&gt;digging &#45; 90.57 -->
<g id="edge69" class="edge">
<title>presence of Elo &#45; 8.67&#45;&gt;digging &#45; 90.57</title>
<path fill="none" stroke="black" stroke-width="0.3" d="M826.95,-269.64C939.14,-274.16 1095.1,-288.71 1134,-334.11 1165.66,-371.06 1141.35,-429.39 1120.2,-466.02"/>
<polygon fill="black" stroke="black" stroke-width="0.3" points="1117.05,-464.46 1114.92,-474.84 1123.06,-468.05 1117.05,-464.46"/>
<text text-anchor="middle" x="1155" y="-374.91" font-family="Times,serif" font-size="14.00">2</text>
</g>
<!-- presence of Elo &#45; 8.67&#45;&gt;presence of Flavi &#45; 63.13 -->
<g id="edge70" class="edge">
<title>presence of Elo &#45; 8.67&#45;&gt;presence of Flavi &#45; 63.13</title>
<path fill="none" stroke="black" stroke-width="0.09" d="M698.97,-283.34C696.55,-288.8 694.21,-295.09 693,-301.11 690.13,-315.31 691.97,-331.09 695.07,-344.61"/>
<polygon fill="black" stroke="black" stroke-width="0.09" points="691.72,-345.64 697.62,-354.44 698.49,-343.88 691.72,-345.64"/>
<text text-anchor="middle" x="698" y="-304.91" font-family="Times,serif" font-size="14.00">1</text>
</g>
<!-- tail quiver &#45; 8.04&#45;&gt;shell &#45; 3760.99 -->
<g id="edge71" class="edge">
<title>tail quiver &#45; 8.04&#45;&gt;shell &#45; 3760.99</title>
<path fill="none" stroke="black" stroke-width="0.09" d="M1256.3,-730.06C1261.76,-719.81 1269.99,-706.52 1280,-697.11 1290.68,-687.07 1303.13,-677.99 1315.91,-669.97"/>
<polygon fill="black" stroke="black" stroke-width="0.09" points="1318.05,-672.77 1324.79,-664.59 1314.42,-666.78 1318.05,-672.77"/>
<text text-anchor="middle" x="1285" y="-700.91" font-family="Times,serif" font-size="14.00">1</text>
</g>
<!-- tail quiver &#45; 8.04&#45;&gt;shell escape &#45; 1423.61 -->
<g id="edge72" class="edge">
<title>tail quiver &#45; 8.04&#45;&gt;shell escape &#45; 1423.61</title>
<path fill="none" stroke="black" stroke-width="0.3" d="M1282.92,-761.58C1293.16,-766.75 1304.06,-773.18 1313,-780.63 1322.22,-788.32 1330.92,-797.68 1338.65,-807.17"/>
<polygon fill="black" stroke="black" stroke-width="0.3" points="1335.98,-809.44 1344.91,-815.14 1341.49,-805.12 1335.98,-809.44"/>
<text text-anchor="middle" x="1334" y="-784.43" font-family="Times,serif" font-size="14.00">2</text>
</g>
<!-- tail quiver &#45; 8.04&#45;&gt;tail quiver &#45; 8.04 -->
<g id="edge73" class="edge">
<title>tail quiver &#45; 8.04&#45;&gt;tail quiver &#45; 8.04</title>
<path fill="none" stroke="black" stroke-width="0.42" d="M1335.09,-753.49C1351.15,-752.61 1362.46,-750.24 1362.46,-746.37 1362.46,-743.38 1355.69,-741.28 1345.19,-740.08"/>
<polygon fill="black" stroke="black" stroke-width="0.42" points="1345.34,-736.58 1335.09,-739.26 1344.77,-743.56 1345.34,-736.58"/>
<text text-anchor="middle" x="1367.46" y="-742.67" font-family="Times,serif" font-size="14.00">3</text>
</g>
</g>
</svg>
