<?xml version="1.0" encoding="UTF-8" standalone="no"?>
<!DOCTYPE svg PUBLIC "-//W3C//DTD SVG 1.1//EN"
 "http://www.w3.org/Graphics/SVG/1.1/DTD/svg11.dtd">
<!-- Generated by graphviz version 2.43.0 (0)
 -->
<!-- Title: %3 Pages: 1 -->
<svg width="952pt" height="573pt"
 viewBox="0.00 0.00 952.01 573.05" xmlns="http://www.w3.org/2000/svg" xmlns:xlink="http://www.w3.org/1999/xlink">
<g id="graph0" class="graph" transform="scale(1 1) rotate(0) translate(4 569.05)">
<title>%3</title>
<polygon fill="white" stroke="transparent" points="-4,4 -4,-569.05 948.01,-569.05 948.01,4 -4,4"/>
<!-- fish&#45;left out of shell &#45; 0.0 -->
<g id="node1" class="node">
<title>fish&#45;left out of shell &#45; 0.0</title>
<ellipse fill="#ffffff" stroke="black" cx="417.42" cy="-548.79" rx="135.11" ry="16.03"/>
<text text-anchor="middle" x="417.42" y="-545.09" font-family="Times,serif" font-size="14.00">fish&#45;left out of shell &#45; 0.0</text>
</g>
<!-- lateral display &#45; 391.93 -->
<g id="node2" class="node">
<title>lateral display &#45; 391.93</title>
<ellipse fill="#00ff7f" stroke="black" cx="417.42" cy="-431.03" rx="108" ry="50.5"/>
<text text-anchor="middle" x="417.42" y="-427.33" font-family="Times,serif" font-size="14.00">lateral display &#45; 391.93</text>
</g>
<!-- fish&#45;left out of shell &#45; 0.0&#45;&gt;lateral display &#45; 391.93 -->
<g id="edge1" class="edge">
<title>fish&#45;left out of shell &#45; 0.0&#45;&gt;lateral display &#45; 391.93</title>
<path fill="none" stroke="black" stroke-width="0.09" d="M417.42,-532.18C417.42,-521.6 417.42,-506.87 417.42,-491.97"/>
<polygon fill="black" stroke="black" stroke-width="0.09" points="420.92,-491.67 417.42,-481.67 413.92,-491.67 420.92,-491.67"/>
<text text-anchor="middle" x="422.42" y="-503.33" font-family="Times,serif" font-size="14.00">1</text>
</g>
<!-- lateral display &#45; 391.93&#45;&gt;lateral display &#45; 391.93 -->
<g id="edge4" class="edge">
<title>lateral display &#45; 391.93&#45;&gt;lateral display &#45; 391.93</title>
<path fill="none" stroke="black" d="M522.18,-443.36C535.01,-441.15 543.42,-437.04 543.42,-431.03 543.42,-426.8 539.26,-423.51 532.34,-421.17"/>
<polygon fill="black" stroke="black" points="532.73,-417.66 522.18,-418.7 531.07,-424.46 532.73,-417.66"/>
<text text-anchor="middle" x="552.92" y="-427.33" font-family="Times,serif" font-size="14.00">35</text>
</g>
<!-- tailbeat &#45; 76.18 -->
<g id="node4" class="node">
<title>tailbeat &#45; 76.18</title>
<ellipse fill="#45ffa2" stroke="black" cx="546.42" cy="-293.03" rx="78.5" ry="36.5"/>
<text text-anchor="middle" x="546.42" y="-289.33" font-family="Times,serif" font-size="14.00">tailbeat &#45; 76.18</text>
</g>
<!-- lateral display &#45; 391.93&#45;&gt;tailbeat &#45; 76.18 -->
<g id="edge6" class="edge">
<title>lateral display &#45; 391.93&#45;&gt;tailbeat &#45; 76.18</title>
<path fill="none" stroke="black" stroke-width="0.75" d="M472.03,-387.12C480.87,-379.3 489.66,-370.94 497.42,-362.53 504.71,-354.63 511.85,-345.62 518.33,-336.79"/>
<polygon fill="black" stroke="black" stroke-width="0.75" points="521.35,-338.58 524.33,-328.42 515.66,-334.51 521.35,-338.58"/>
<text text-anchor="middle" x="518.92" y="-351.33" font-family="Times,serif" font-size="14.00">13</text>
</g>
<!-- frontal &#45; 57.22 -->
<g id="node5" class="node">
<title>frontal &#45; 57.22</title>
<ellipse fill="#51ffa8" stroke="black" cx="313.42" cy="-34.5" rx="73.5" ry="34.5"/>
<text text-anchor="middle" x="313.42" y="-30.8" font-family="Times,serif" font-size="14.00">frontal &#45; 57.22</text>
</g>
<!-- lateral display &#45; 391.93&#45;&gt;frontal &#45; 57.22 -->
<g id="edge2" class="edge">
<title>lateral display &#45; 391.93&#45;&gt;frontal &#45; 57.22</title>
<path fill="none" stroke="black" stroke-width="0.59" d="M315.51,-413.79C218.36,-392.27 77.54,-343.89 12.42,-238.53 -47.83,-141.03 129.34,-79.61 237.08,-52.2"/>
<polygon fill="black" stroke="black" stroke-width="0.59" points="238.1,-55.55 246.95,-49.74 236.4,-48.76 238.1,-55.55"/>
<text text-anchor="middle" x="17.42" y="-218.56" font-family="Times,serif" font-size="14.00">7</text>
</g>
<!-- head&#45;down &#45; 55.84 -->
<g id="node6" class="node">
<title>head&#45;down &#45; 55.84</title>
<ellipse fill="#52ffa8" stroke="black" cx="443.42" cy="-154" rx="78.77" ry="34"/>
<text text-anchor="middle" x="443.42" y="-150.3" font-family="Times,serif" font-size="14.00">head&#45;down &#45; 55.84</text>
</g>
<!-- lateral display &#45; 391.93&#45;&gt;head&#45;down &#45; 55.84 -->
<g id="edge3" class="edge">
<title>lateral display &#45; 391.93&#45;&gt;head&#45;down &#45; 55.84</title>
<path fill="none" stroke="black" stroke-width="0.7" d="M422.1,-380.54C427.01,-328.56 434.66,-247.64 439.34,-198.17"/>
<polygon fill="black" stroke="black" stroke-width="0.7" points="442.83,-198.4 440.29,-188.11 435.86,-197.74 442.83,-198.4"/>
<text text-anchor="middle" x="443.92" y="-289.33" font-family="Times,serif" font-size="14.00">11</text>
</g>
<!-- lunging/shooting out &#45; 2.4 -->
<g id="node8" class="node">
<title>lunging/shooting out &#45; 2.4</title>
<ellipse fill="#caffe4" stroke="black" cx="168.42" cy="-222.26" rx="141.34" ry="16.03"/>
<text text-anchor="middle" x="168.42" y="-218.56" font-family="Times,serif" font-size="14.00">lunging/shooting out &#45; 2.4</text>
</g>
<!-- lateral display &#45; 391.93&#45;&gt;lunging/shooting out &#45; 2.4 -->
<g id="edge5" class="edge">
<title>lateral display &#45; 391.93&#45;&gt;lunging/shooting out &#45; 2.4</title>
<path fill="none" stroke="black" stroke-width="0.09" d="M349.79,-391.49C335.71,-382.55 321.26,-372.67 308.42,-362.53 261.95,-325.81 214.44,-275.23 188.46,-246.22"/>
<polygon fill="black" stroke="black" stroke-width="0.09" points="190.98,-243.78 181.72,-238.63 185.75,-248.43 190.98,-243.78"/>
<text text-anchor="middle" x="313.42" y="-351.33" font-family="Times,serif" font-size="14.00">1</text>
</g>
<!-- fish&#45;right out of shell &#45; 0.0 -->
<g id="node3" class="node">
<title>fish&#45;right out of shell &#45; 0.0</title>
<ellipse fill="#ffffff" stroke="black" cx="743.42" cy="-431.03" rx="142.67" ry="16.03"/>
<text text-anchor="middle" x="743.42" y="-427.33" font-family="Times,serif" font-size="14.00">fish&#45;right out of shell &#45; 0.0</text>
</g>
<!-- fish&#45;right out of shell &#45; 0.0&#45;&gt;tailbeat &#45; 76.18 -->
<g id="edge7" class="edge">
<title>fish&#45;right out of shell &#45; 0.0&#45;&gt;tailbeat &#45; 76.18</title>
<path fill="none" stroke="black" stroke-width="0.09" d="M721.59,-414.95C691.94,-394.49 638.04,-357.28 597.83,-329.52"/>
<polygon fill="black" stroke="black" stroke-width="0.09" points="599.69,-326.55 589.47,-323.75 595.71,-332.31 599.69,-326.55"/>
<text text-anchor="middle" x="649.42" y="-351.33" font-family="Times,serif" font-size="14.00">1</text>
</g>
<!-- tailbeat &#45; 76.18&#45;&gt;lateral display &#45; 391.93 -->
<g id="edge11" class="edge">
<title>tailbeat &#45; 76.18&#45;&gt;lateral display &#45; 391.93</title>
<path fill="none" stroke="black" stroke-width="0.7" d="M502.26,-323.27C492.59,-330.63 482.75,-338.9 474.42,-347.53 466.73,-355.48 459.35,-364.57 452.59,-373.74"/>
<polygon fill="black" stroke="black" stroke-width="0.7" points="449.55,-371.99 446.58,-382.16 455.24,-376.06 449.55,-371.99"/>
<text text-anchor="middle" x="483.92" y="-351.33" font-family="Times,serif" font-size="14.00">11</text>
</g>
<!-- tailbeat &#45; 76.18&#45;&gt;tailbeat &#45; 76.18 -->
<g id="edge12" class="edge">
<title>tailbeat &#45; 76.18&#45;&gt;tailbeat &#45; 76.18</title>
<path fill="none" stroke="black" stroke-width="0.68" d="M621.68,-303.83C634.25,-302.32 642.92,-298.72 642.92,-293.03 642.92,-289.03 638.63,-286.06 631.72,-284.12"/>
<polygon fill="black" stroke="black" stroke-width="0.68" points="632.15,-280.64 621.68,-282.22 630.85,-287.52 632.15,-280.64"/>
<text text-anchor="middle" x="652.42" y="-289.33" font-family="Times,serif" font-size="14.00">10</text>
</g>
<!-- tailbeat &#45; 76.18&#45;&gt;frontal &#45; 57.22 -->
<g id="edge8" class="edge">
<title>tailbeat &#45; 76.18&#45;&gt;frontal &#45; 57.22</title>
<path fill="none" stroke="black" stroke-width="0.45" d="M561.19,-257.18C574.52,-219.7 588.05,-160.1 559.42,-120 522.67,-68.51 452.47,-48.07 396.44,-40.12"/>
<polygon fill="black" stroke="black" stroke-width="0.45" points="396.88,-36.64 386.51,-38.81 395.97,-43.58 396.88,-36.64"/>
<text text-anchor="middle" x="581.42" y="-150.3" font-family="Times,serif" font-size="14.00">4</text>
</g>
<!-- tailbeat &#45; 76.18&#45;&gt;head&#45;down &#45; 55.84 -->
<g id="edge9" class="edge">
<title>tailbeat &#45; 76.18&#45;&gt;head&#45;down &#45; 55.84</title>
<path fill="none" stroke="black" stroke-width="0.45" d="M518.34,-258.65C512.97,-252.05 507.45,-245.12 502.42,-238.53 491.81,-224.62 480.63,-209.04 470.88,-195.14"/>
<polygon fill="black" stroke="black" stroke-width="0.45" points="473.61,-192.93 465.02,-186.73 467.87,-196.93 473.61,-192.93"/>
<text text-anchor="middle" x="507.42" y="-218.56" font-family="Times,serif" font-size="14.00">4</text>
</g>
<!-- intoshell &#45; 34.5 -->
<g id="node7" class="node">
<title>intoshell &#45; 34.5</title>
<ellipse fill="#66ffb2" stroke="black" cx="877.42" cy="-154" rx="66.67" ry="30"/>
<text text-anchor="middle" x="877.42" y="-150.3" font-family="Times,serif" font-size="14.00">intoshell &#45; 34.5</text>
</g>
<!-- tailbeat &#45; 76.18&#45;&gt;intoshell &#45; 34.5 -->
<g id="edge10" class="edge">
<title>tailbeat &#45; 76.18&#45;&gt;intoshell &#45; 34.5</title>
<path fill="none" stroke="black" stroke-width="0.09" d="M608.87,-270.7C627.61,-262.47 647.43,-251.78 663.42,-238.53 677.05,-227.23 671.38,-215.33 686.42,-206 730.38,-178.73 751.74,-202.42 801.42,-188 808.8,-185.86 816.41,-183.17 823.84,-180.26"/>
<polygon fill="black" stroke="black" stroke-width="0.09" points="825.17,-183.5 833.11,-176.48 822.53,-177.02 825.17,-183.5"/>
<text text-anchor="middle" x="691.42" y="-218.56" font-family="Times,serif" font-size="14.00">1</text>
</g>
<!-- unknown &#45; 1.07 -->
<g id="node9" class="node">
<title>unknown &#45; 1.07</title>
<ellipse fill="#dfffef" stroke="black" cx="703.42" cy="-154" rx="89.19" ry="16.03"/>
<text text-anchor="middle" x="703.42" y="-150.3" font-family="Times,serif" font-size="14.00">unknown &#45; 1.07</text>
</g>
<!-- tailbeat &#45; 76.18&#45;&gt;unknown &#45; 1.07 -->
<g id="edge13" class="edge">
<title>tailbeat &#45; 76.18&#45;&gt;unknown &#45; 1.07</title>
<path fill="none" stroke="black" stroke-width="0.09" d="M596.3,-264.75C608.15,-257.09 620.28,-248.19 630.42,-238.53 643.24,-226.31 642.08,-219.59 653.42,-206 661.66,-196.13 671.42,-185.9 680.12,-177.21"/>
<polygon fill="black" stroke="black" stroke-width="0.09" points="682.76,-179.52 687.43,-170.02 677.85,-174.53 682.76,-179.52"/>
<text text-anchor="middle" x="658.42" y="-218.56" font-family="Times,serif" font-size="14.00">1</text>
</g>
<!-- frontal &#45; 57.22&#45;&gt;lateral display &#45; 391.93 -->
<g id="edge15" class="edge">
<title>frontal &#45; 57.22&#45;&gt;lateral display &#45; 391.93</title>
<path fill="none" stroke="black" stroke-width="0.7" d="M309.53,-69C306.86,-100.22 305.26,-147.86 314.42,-188 329.5,-254.08 361.72,-324.9 386.14,-372.75"/>
<polygon fill="black" stroke="black" stroke-width="0.7" points="383.06,-374.42 390.75,-381.7 389.28,-371.21 383.06,-374.42"/>
<text text-anchor="middle" x="338.92" y="-218.56" font-family="Times,serif" font-size="14.00">11</text>
</g>
<!-- frontal &#45; 57.22&#45;&gt;tailbeat &#45; 76.18 -->
<g id="edge16" class="edge">
<title>frontal &#45; 57.22&#45;&gt;tailbeat &#45; 76.18</title>
<path fill="none" stroke="black" stroke-width="0.27" d="M312.49,-69.22C313.27,-102.59 319.23,-153.54 345.42,-188 363.02,-211.15 427.48,-242.31 478.72,-264.48"/>
<polygon fill="black" stroke="black" stroke-width="0.27" points="477.55,-267.79 488.12,-268.51 480.3,-261.35 477.55,-267.79"/>
<text text-anchor="middle" x="350.42" y="-150.3" font-family="Times,serif" font-size="14.00">2</text>
</g>
<!-- frontal &#45; 57.22&#45;&gt;frontal &#45; 57.22 -->
<g id="edge14" class="edge">
<title>frontal &#45; 57.22&#45;&gt;frontal &#45; 57.22</title>
<path fill="none" stroke="black" stroke-width="0.09" d="M383.62,-45.09C396.16,-43.71 404.92,-40.18 404.92,-34.5 404.92,-30.5 400.59,-27.57 393.66,-25.71"/>
<polygon fill="black" stroke="black" stroke-width="0.09" points="394.08,-22.23 383.62,-23.91 392.85,-29.12 394.08,-22.23"/>
<text text-anchor="middle" x="409.92" y="-30.8" font-family="Times,serif" font-size="14.00">1</text>
</g>
<!-- head&#45;down &#45; 55.84&#45;&gt;lateral display &#45; 391.93 -->
<g id="edge19" class="edge">
<title>head&#45;down &#45; 55.84&#45;&gt;lateral display &#45; 391.93</title>
<path fill="none" stroke="black" stroke-width="0.62" d="M431.1,-187.84C424.41,-207.46 416.81,-233.06 413.42,-256.53 407.99,-294.09 408.87,-336.7 411.17,-370.29"/>
<polygon fill="black" stroke="black" stroke-width="0.62" points="407.69,-370.69 411.92,-380.41 414.67,-370.17 407.69,-370.69"/>
<text text-anchor="middle" x="418.42" y="-289.33" font-family="Times,serif" font-size="14.00">8</text>
</g>
<!-- head&#45;down &#45; 55.84&#45;&gt;tailbeat &#45; 76.18 -->
<g id="edge20" class="edge">
<title>head&#45;down &#45; 55.84&#45;&gt;tailbeat &#45; 76.18</title>
<path fill="none" stroke="black" stroke-width="0.55" d="M487.91,-182.15C496.87,-189.1 505.61,-197.14 512.42,-206 521.72,-218.1 528.81,-233.08 534.03,-247.13"/>
<polygon fill="black" stroke="black" stroke-width="0.55" points="530.76,-248.37 537.36,-256.66 537.37,-246.06 530.76,-248.37"/>
<text text-anchor="middle" x="535.42" y="-218.56" font-family="Times,serif" font-size="14.00">6</text>
</g>
<!-- head&#45;down &#45; 55.84&#45;&gt;frontal &#45; 57.22 -->
<g id="edge17" class="edge">
<title>head&#45;down &#45; 55.84&#45;&gt;frontal &#45; 57.22</title>
<path fill="none" stroke="black" stroke-width="0.09" d="M410.28,-123.05C393.17,-107.58 372.14,-88.57 354.05,-72.22"/>
<polygon fill="black" stroke="black" stroke-width="0.09" points="356.27,-69.51 346.5,-65.4 351.57,-74.7 356.27,-69.51"/>
<text text-anchor="middle" x="391.42" y="-90.8" font-family="Times,serif" font-size="14.00">1</text>
</g>
<!-- head&#45;down &#45; 55.84&#45;&gt;head&#45;down &#45; 55.84 -->
<g id="edge18" class="edge">
<title>head&#45;down &#45; 55.84&#45;&gt;head&#45;down &#45; 55.84</title>
<path fill="none" stroke="black" stroke-width="0.62" d="M518.78,-164.11C531.37,-162.69 540.06,-159.32 540.06,-154 540.06,-150.26 535.76,-147.48 528.84,-145.67"/>
<polygon fill="black" stroke="black" stroke-width="0.62" points="529.24,-142.19 518.78,-143.89 528.02,-149.08 529.24,-142.19"/>
<text text-anchor="middle" x="545.06" y="-150.3" font-family="Times,serif" font-size="14.00">8</text>
</g>
<!-- intoshell &#45; 34.5&#45;&gt;lateral display &#45; 391.93 -->
<g id="edge21" class="edge">
<title>intoshell &#45; 34.5&#45;&gt;lateral display &#45; 391.93</title>
<path fill="none" stroke="black" stroke-width="0.09" d="M851.64,-181.79C814.63,-219.02 742.99,-286.64 671.42,-329.53 623.08,-358.49 564.89,-382.22 516.41,-399.33"/>
<polygon fill="black" stroke="black" stroke-width="0.09" points="515.14,-396.07 506.85,-402.67 517.45,-402.68 515.14,-396.07"/>
<text text-anchor="middle" x="775.42" y="-289.33" font-family="Times,serif" font-size="14.00">1</text>
</g>
<!-- lunging/shooting out &#45; 2.4&#45;&gt;frontal &#45; 57.22 -->
<g id="edge22" class="edge">
<title>lunging/shooting out &#45; 2.4&#45;&gt;frontal &#45; 57.22</title>
<path fill="none" stroke="black" stroke-width="0.09" d="M180.53,-205.74C202.76,-177.27 250.68,-115.88 282.48,-75.13"/>
<polygon fill="black" stroke="black" stroke-width="0.09" points="285.42,-77.06 288.81,-67.02 279.9,-72.75 285.42,-77.06"/>
<text text-anchor="middle" x="252.42" y="-150.3" font-family="Times,serif" font-size="14.00">1</text>
</g>
<!-- unknown &#45; 1.07&#45;&gt;tailbeat &#45; 76.18 -->
<g id="edge23" class="edge">
<title>unknown &#45; 1.07&#45;&gt;tailbeat &#45; 76.18</title>
<path fill="none" stroke="black" stroke-width="0.09" d="M672.88,-169.42C655.91,-178.39 635.11,-191.06 619.42,-206 606.78,-218.03 608.37,-224.94 597.42,-238.53 593.76,-243.07 589.79,-247.69 585.74,-252.21"/>
<polygon fill="black" stroke="black" stroke-width="0.09" points="583.05,-249.97 578.87,-259.71 588.21,-254.7 583.05,-249.97"/>
<text text-anchor="middle" x="624.42" y="-218.56" font-family="Times,serif" font-size="14.00">1</text>
</g>
</g>
</svg>
